<svg width="146" height="49" viewBox="0 0 146 49" fill="none" xmlns="http://www.w3.org/2000/svg">
<path d="M62.4304 25.8306C62.4304 32.7388 57.0261 37.8293 50.3939 37.8293C43.7617 37.8293 38.3574 32.7388 38.3574 25.8306C38.3574 18.8738 43.7617 13.832 50.3939 13.832C57.0261 13.832 62.4304 18.8738 62.4304 25.8306ZM57.1614 25.8306C57.1614 21.5137 54.0292 18.5601 50.3939 18.5601C46.7586 18.5601 43.6264 21.5137 43.6264 25.8306C43.6264 30.1043 46.7586 33.1012 50.3939 33.1012C54.0292 33.1012 57.1614 30.0989 57.1614 25.8306Z" fill="#EA4335"/>
<path d="M88.3991 25.8306C88.3991 32.7388 82.9949 37.8293 76.3627 37.8293C69.7304 37.8293 64.3262 32.7388 64.3262 25.8306C64.3262 18.8792 69.7304 13.832 76.3627 13.832C82.9949 13.832 88.3991 18.8738 88.3991 25.8306ZM83.1301 25.8306C83.1301 21.5137 79.9979 18.5601 76.3627 18.5601C72.7274 18.5601 69.5952 21.5137 69.5952 25.8306C69.5952 30.1043 72.7274 33.1012 76.3627 33.1012C79.9979 33.1012 83.1301 30.0989 83.1301 25.8306Z" fill="#FBBC05"/>
<path d="M113.285 14.5569V36.0982C113.285 44.9592 108.059 48.5782 101.882 48.5782C96.0661 48.5782 92.5661 44.6887 91.2461 41.5078L95.8335 39.5982C96.6504 41.5511 98.6519 43.8556 101.876 43.8556C105.831 43.8556 108.281 41.4159 108.281 36.8231V35.0974H108.097C106.918 36.5526 104.646 37.8238 101.779 37.8238C95.7794 37.8238 90.2832 32.5981 90.2832 25.8739C90.2832 19.101 95.7794 13.832 101.779 13.832C104.64 13.832 106.912 15.1033 108.097 16.5152H108.281V14.5623H113.285V14.5569ZM108.654 25.8739C108.654 21.649 105.836 18.5601 102.249 18.5601C98.6141 18.5601 95.5684 21.649 95.5684 25.8739C95.5684 30.0556 98.6141 33.1012 102.249 33.1012C105.836 33.1012 108.654 30.0556 108.654 25.8739Z" fill="#4285F4"/>
<path d="M121.534 1.92969V37.0924H116.395V1.92969H121.534Z" fill="#34A853"/>
<path d="M141.56 29.7812L145.65 32.5077C144.33 34.4605 141.149 37.8254 135.653 37.8254C128.837 37.8254 123.746 32.5563 123.746 25.8267C123.746 18.6914 128.88 13.8281 135.063 13.8281C141.29 13.8281 144.335 18.7834 145.331 21.4611L145.877 22.8244L129.837 29.4674C131.065 31.8747 132.975 33.1027 135.653 33.1027C138.336 33.1027 140.197 31.7828 141.56 29.7812ZM128.972 25.4643L139.694 21.0121C139.104 19.5137 137.33 18.4696 135.242 18.4696C132.564 18.4696 128.837 20.8336 128.972 25.4643Z" fill="#EA4335"/>
<path d="M18.9057 22.7096V17.6191H36.0597C36.2274 18.5063 36.314 19.5558 36.314 20.6918C36.314 24.511 35.2699 29.2337 31.9051 32.5985C28.6322 36.0066 24.4506 37.8242 18.9111 37.8242C8.64357 37.8242 0.00976562 29.4609 0.00976562 19.1933C0.00976562 8.92583 8.64357 0.5625 18.9111 0.5625C24.5912 0.5625 28.6377 2.79128 31.6779 5.69626L28.0859 9.28827C25.9058 7.24342 22.9521 5.65298 18.9057 5.65298C11.4079 5.65298 5.54384 11.6956 5.54384 19.1933C5.54384 26.6911 11.4079 32.7337 18.9057 32.7337C23.769 32.7337 26.5387 30.7808 28.3131 29.0065C29.752 27.5675 30.6987 25.5118 31.072 22.7042L18.9057 22.7096Z" fill="#4285F4"/>
</svg>
