<svg width="95" height="91" viewBox="0 0 95 91" fill="none" xmlns="http://www.w3.org/2000/svg">
<path d="M91.9216 90.1138H2.34262C1.1913 90.1138 0.263672 89.1796 0.263672 88.0349V2.7059C0.263672 1.55458 1.19788 0.626953 2.34262 0.626953H91.9216C93.0729 0.626953 94.0005 1.56116 94.0005 2.7059V88.0349C94.0005 89.1862 93.0663 90.1138 91.9216 90.1138Z" fill="white"/>
<mask id="mask0_916_17829" style="mask-type:luminance" maskUnits="userSpaceOnUse" x="0" y="0" width="95" height="91">
<path d="M94.2632 0.364258H0V90.3774H94.2632V0.364258Z" fill="white"/>
</mask>
<g mask="url(#mask0_916_17829)">
<path d="M91.9216 90.1148H2.34262C1.1913 90.1148 0.263672 89.1806 0.263672 88.0358V2.70688C0.263672 1.55556 1.19788 0.62793 2.34262 0.62793H91.9216C93.0729 0.62793 94.0005 1.56214 94.0005 2.70688V88.0358C94.0005 89.1871 93.0663 90.1148 91.9216 90.1148Z" stroke="#5F6368" stroke-width="0.519737" stroke-miterlimit="10"/>
</g>
<path d="M16.7896 65.0946C16.2567 64.7854 15.8356 64.3643 15.5198 63.8248C15.2041 63.2854 15.0527 62.6867 15.0527 62.0354C15.0527 61.384 15.2106 60.7854 15.5198 60.2459C15.8291 59.7064 16.2567 59.2854 16.7896 58.9761C17.3225 58.6669 17.908 58.5156 18.5396 58.5156C19.033 58.5156 19.5001 58.6012 19.9343 58.7788C20.3685 58.9564 20.7304 59.1998 21.0133 59.5222L20.4409 60.0946C20.2304 59.8314 19.954 59.6275 19.6251 59.4893C19.2896 59.3512 18.9343 59.2788 18.5527 59.2788C18.0791 59.2788 17.6317 59.3906 17.2238 59.6209C16.8159 59.8512 16.4869 60.1735 16.2369 60.588C15.9869 61.0025 15.8685 61.4893 15.8685 62.0354C15.8685 62.5814 15.9935 63.0617 16.2369 63.4827C16.4804 63.9038 16.8159 64.2196 17.2304 64.4498C17.6448 64.6801 18.0856 64.7919 18.5593 64.7919C19.033 64.7919 19.3883 64.7196 19.6909 64.5814C19.9935 64.4433 20.2567 64.2525 20.4738 64.0222C20.6383 63.8446 20.7698 63.634 20.8685 63.384C20.9672 63.134 21.033 62.8643 21.0593 62.5617H18.5659V61.8183H21.8027C21.8356 61.9959 21.8488 62.1538 21.8488 62.3051C21.8488 62.7196 21.783 63.1209 21.6514 63.5156C21.5198 63.9104 21.3093 64.2525 21.0198 64.5485C20.4014 65.2196 19.5725 65.5551 18.5462 65.5551C17.9146 65.5551 17.329 65.4038 16.7962 65.0946H16.7896ZM23.8225 65.2196C23.4475 64.9959 23.1514 64.6867 22.9409 64.2985C22.7304 63.9104 22.6251 63.4827 22.6251 63.009C22.6251 62.5354 22.7304 62.1077 22.9409 61.7196C23.1514 61.3314 23.4475 61.0222 23.8225 60.7985C24.1975 60.5748 24.6251 60.463 25.0922 60.463C25.5593 60.463 25.9869 60.5748 26.3619 60.7985C26.7369 61.0222 27.033 61.3314 27.2435 61.7196C27.4541 62.1077 27.5593 62.5354 27.5593 63.009C27.5593 63.4827 27.4541 63.9104 27.2435 64.2985C27.033 64.6867 26.7369 64.9959 26.3619 65.2196C25.9869 65.4433 25.5593 65.5551 25.0922 65.5551C24.6251 65.5551 24.1975 65.4433 23.8225 65.2196ZM25.9146 64.6143C26.1712 64.4696 26.3751 64.2525 26.5264 63.9762C26.6777 63.6998 26.7567 63.3775 26.7567 63.009C26.7567 62.6406 26.6777 62.3183 26.5264 62.0419C26.3751 61.7656 26.1712 61.5551 25.9146 61.4104C25.658 61.2656 25.3883 61.1867 25.0922 61.1867C24.7962 61.1867 24.5198 61.259 24.2633 61.4104C24.0067 61.5551 23.8027 61.7722 23.6448 62.0419C23.4935 62.3183 23.4146 62.6406 23.4146 63.009C23.4146 63.3775 23.4935 63.6998 23.6448 63.9762C23.7962 64.2525 24.0067 64.463 24.2633 64.6143C24.5198 64.759 24.7962 64.838 25.0922 64.838C25.3883 64.838 25.6646 64.7656 25.9146 64.6143ZM29.4212 65.2196C29.0462 64.9959 28.7501 64.6867 28.5396 64.2985C28.3291 63.9104 28.2238 63.4827 28.2238 63.009C28.2238 62.5354 28.3291 62.1077 28.5396 61.7196C28.7501 61.3314 29.0462 61.0222 29.4212 60.7985C29.7962 60.5748 30.2238 60.463 30.6909 60.463C31.158 60.463 31.5856 60.5748 31.9606 60.7985C32.3356 61.0222 32.6317 61.3314 32.8422 61.7196C33.0527 62.1077 33.158 62.5354 33.158 63.009C33.158 63.4827 33.0527 63.9104 32.8422 64.2985C32.6317 64.6867 32.3356 64.9959 31.9606 65.2196C31.5856 65.4433 31.158 65.5551 30.6909 65.5551C30.2238 65.5551 29.7962 65.4433 29.4212 65.2196ZM31.5133 64.6143C31.7698 64.4696 31.9738 64.2525 32.1251 63.9762C32.2764 63.6998 32.3554 63.3775 32.3554 63.009C32.3554 62.6406 32.2764 62.3183 32.1251 62.0419C31.9738 61.7656 31.7698 61.5551 31.5133 61.4104C31.2567 61.2656 30.9869 61.1867 30.6909 61.1867C30.3948 61.1867 30.1185 61.259 29.8619 61.4104C29.6054 61.5551 29.4014 61.7722 29.2435 62.0419C29.0922 62.3183 29.0133 62.6406 29.0133 63.009C29.0133 63.3775 29.0922 63.6998 29.2435 63.9762C29.3948 64.2525 29.6054 64.463 29.8619 64.6143C30.1185 64.759 30.3948 64.838 30.6909 64.838C30.9869 64.838 31.2633 64.7656 31.5133 64.6143ZM34.7896 67.1933C34.4212 66.9301 34.1777 66.6143 34.0527 66.2459L34.7764 65.9367C34.8817 66.213 35.0593 66.4367 35.3093 66.6077C35.5593 66.7788 35.8488 66.8643 36.1909 66.8643C36.6843 66.8643 37.0725 66.7261 37.3422 66.4498C37.6119 66.1735 37.7501 65.7788 37.7501 65.2656V64.7327H37.7106C37.5527 64.9761 37.3356 65.1735 37.0462 65.3314C36.7633 65.4827 36.4343 65.5617 36.0725 65.5617C35.658 65.5617 35.283 65.4564 34.9409 65.2393C34.5988 65.0222 34.3291 64.7196 34.1251 64.338C33.9212 63.9498 33.8225 63.509 33.8225 63.0156C33.8225 62.5222 33.9212 62.088 34.1251 61.6998C34.3291 61.3117 34.5988 61.009 34.9409 60.7919C35.283 60.5748 35.658 60.4696 36.0725 60.4696C36.4343 60.4696 36.7633 60.5485 37.0462 60.6998C37.3291 60.8512 37.5527 61.0551 37.7106 61.3051H37.7501V60.6209H38.5133V65.2327C38.5133 66.0025 38.3027 66.5946 37.8751 66.9959C37.4475 67.3972 36.8883 67.6011 36.1909 67.6011C35.6251 67.6011 35.158 67.4696 34.7962 67.2064L34.7896 67.1933ZM36.9738 64.6143C37.2106 64.4696 37.3948 64.259 37.5396 63.9827C37.6777 63.7064 37.7501 63.384 37.7501 63.009C37.7501 62.634 37.6777 62.2985 37.5396 62.0222C37.4014 61.7459 37.2106 61.5419 36.9738 61.3972C36.7369 61.2525 36.4738 61.1801 36.1909 61.1801C35.908 61.1801 35.6383 61.2525 35.4014 61.3972C35.1646 61.5419 34.9738 61.7525 34.8291 62.0288C34.6909 62.3051 34.6185 62.6275 34.6185 63.0025C34.6185 63.3775 34.6909 63.7064 34.8291 63.9827C34.9672 64.259 35.158 64.4696 35.4014 64.6143C35.6448 64.759 35.9014 64.8314 36.1909 64.8314C36.4804 64.8314 36.7435 64.759 36.9738 64.6143ZM39.6909 58.6735H40.4935V65.4104H39.6909V58.6735ZM42.5791 65.2327C42.2172 65.0156 41.9343 64.713 41.7304 64.3248C41.5264 63.9367 41.4277 63.5025 41.4277 63.0222C41.4277 62.5419 41.5264 62.134 41.7172 61.7393C41.908 61.3512 42.1777 61.0419 42.533 60.8051C42.8817 60.5748 43.2896 60.4564 43.7567 60.4564C44.2238 60.4564 44.6317 60.5617 44.9804 60.7722C45.3225 60.9827 45.5922 61.2722 45.7764 61.6406C45.9606 62.009 46.0527 62.4367 46.0527 62.9104C46.0527 63.0025 46.0462 63.088 46.0264 63.1538H42.2369C42.2567 63.5156 42.3422 63.8248 42.5001 64.0748C42.658 64.3248 42.8554 64.5156 43.0988 64.6406C43.3422 64.7656 43.5922 64.8314 43.8554 64.8314C44.4672 64.8314 44.9409 64.5419 45.2764 63.963L45.9541 64.2919C45.7501 64.6801 45.4672 64.9893 45.1119 65.213C44.7567 65.4367 44.3291 65.5485 43.8291 65.5485C43.3685 65.5485 42.9606 65.4367 42.5988 65.2196L42.5791 65.2327ZM45.1975 62.5025C45.1843 62.3051 45.1251 62.1012 45.0264 61.8972C44.9277 61.6998 44.7698 61.5288 44.5527 61.3906C44.3356 61.2525 44.0659 61.1867 43.7369 61.1867C43.3619 61.1867 43.0396 61.3051 42.783 61.5485C42.5198 61.7919 42.3488 62.1077 42.2698 62.5025H45.1975ZM48.9409 58.6735H51.2106C51.5856 58.6735 51.9343 58.759 52.2567 58.9301C52.5791 59.1011 52.8291 59.338 53.0264 59.6406C53.2172 59.9433 53.3159 60.2854 53.3159 60.6735C53.3159 61.0617 53.2172 61.3972 53.0264 61.7064C52.8356 62.009 52.5791 62.2459 52.2567 62.4169C51.9343 62.588 51.5856 62.6735 51.2106 62.6735H49.7304V65.4235H48.9409V58.6867V58.6735ZM51.2304 61.8972C51.4804 61.8972 51.704 61.838 51.8948 61.7196C52.0856 61.6012 52.2369 61.4498 52.3422 61.259C52.4475 61.0683 52.5001 60.8709 52.5001 60.6669C52.5001 60.463 52.4475 60.2656 52.3422 60.0748C52.2369 59.884 52.0856 59.7327 51.8948 59.6143C51.704 59.4959 51.4804 59.4367 51.2304 59.4367H49.7369V61.9038H51.2304V61.8972ZM54.9212 65.3512C54.6448 65.213 54.4343 65.0222 54.283 64.7788C54.1317 64.5354 54.0593 64.2656 54.0593 63.9564C54.0593 63.4498 54.2501 63.0485 54.6317 62.7656C55.0133 62.4827 55.5001 62.338 56.0791 62.338C56.3685 62.338 56.6383 62.3709 56.8817 62.4301C57.1317 62.4959 57.3225 62.5683 57.4541 62.6472V62.3577C57.4541 62.0025 57.3291 61.713 57.0791 61.4959C56.8291 61.2788 56.5133 61.1735 56.1317 61.1735C55.8619 61.1735 55.6119 61.2327 55.3883 61.3446C55.1646 61.463 54.9869 61.6209 54.8554 61.8314L54.2501 61.3775C54.4409 61.088 54.6975 60.8643 55.0264 60.6998C55.3554 60.5354 55.7238 60.4564 56.1251 60.4564C56.7764 60.4564 57.2896 60.6275 57.6646 60.9696C58.0396 61.3117 58.2238 61.7788 58.2238 62.3643V65.4038H57.4606V64.7196H57.4212C57.283 64.9498 57.079 65.1472 56.8027 65.3117C56.5264 65.4762 56.2172 65.5551 55.8685 65.5551C55.5198 65.5551 55.2041 65.4893 54.9277 65.3512H54.9212ZM56.6909 64.6472C56.9212 64.509 57.1054 64.3248 57.2435 64.0946C57.3817 63.8643 57.4475 63.6077 57.4475 63.3314C57.2962 63.2327 57.1119 63.1472 56.8948 63.088C56.6777 63.0288 56.4409 62.9959 56.1975 62.9959C55.7567 62.9959 55.4277 63.088 55.204 63.2722C54.9804 63.4564 54.8685 63.6867 54.8685 63.9762C54.8685 64.2393 54.9672 64.4498 55.1712 64.6143C55.3751 64.7788 55.6251 64.8577 55.9343 64.8577C56.204 64.8577 56.454 64.7919 56.6843 64.6538L56.6909 64.6472ZM59.1909 60.6867H59.954V61.4498H59.9935C60.1054 61.1669 60.2962 60.9498 60.5659 60.7919C60.8356 60.634 61.1317 60.5551 61.4475 60.5551C61.5856 60.5551 61.7041 60.5617 61.7962 60.5814V61.3972C61.6909 61.3709 61.5462 61.3577 61.3619 61.3577C60.954 61.3577 60.6251 61.4959 60.3685 61.759C60.1119 62.0288 59.9869 62.3775 59.9869 62.8117V65.4762H59.1843V60.6801L59.1909 60.6867ZM64.0593 65.463C63.8948 65.3972 63.7567 65.3117 63.6383 65.2064C63.5133 65.088 63.4212 64.9433 63.3554 64.7854C63.2896 64.6275 63.2633 64.4301 63.2633 64.1998V61.338H62.4277V60.6143H63.2633V59.259H64.0593V60.6143H65.2238V61.338H64.0593V64.009C64.0593 64.2788 64.1119 64.4762 64.2106 64.6077C64.3291 64.7459 64.5001 64.8183 64.7304 64.8183C64.9146 64.8183 65.0856 64.7656 65.2567 64.6604V65.4433C65.1646 65.4893 65.0659 65.5156 64.9672 65.5354C64.8685 65.5551 64.7435 65.5617 64.5988 65.5617C64.4014 65.5617 64.2238 65.5288 64.0593 65.463ZM66.1448 60.6077H66.908V61.3117H66.9475C67.0791 61.0748 67.2896 60.8709 67.5791 60.7064C67.8685 60.5419 68.1777 60.4564 68.5001 60.4564C69.0791 60.4564 69.5198 60.6209 69.8225 60.9564C70.1251 61.2919 70.2764 61.7459 70.2764 62.3248V65.4038H69.4738V62.4498C69.4738 62.0025 69.3685 61.6801 69.1514 61.4827C68.9409 61.2854 68.6448 61.1801 68.2764 61.1801C68.0198 61.1801 67.7896 61.2525 67.5856 61.3972C67.3817 61.5419 67.2238 61.7327 67.1119 61.9696C67.0001 62.2064 66.9409 62.4498 66.9409 62.7064V65.4038H66.1383V60.6077H66.1448ZM72.3225 65.2261C71.9606 65.009 71.6777 64.7064 71.4738 64.3183C71.2698 63.9301 71.1712 63.4959 71.1712 63.0156C71.1712 62.5354 71.2698 62.1275 71.4606 61.7327C71.6514 61.3446 71.9212 61.0354 72.2764 60.7985C72.6317 60.5617 73.033 60.4498 73.5001 60.4498C73.9672 60.4498 74.3751 60.5551 74.7238 60.7656C75.0725 60.9762 75.3356 61.2656 75.5198 61.634C75.7041 62.0025 75.7962 62.4301 75.7962 62.9038C75.7962 62.9959 75.7896 63.0814 75.7698 63.1472H71.9804C72.0001 63.509 72.0856 63.8183 72.2435 64.0683C72.4014 64.3183 72.5988 64.509 72.8422 64.634C73.0856 64.759 73.3356 64.8248 73.5988 64.8248C74.2106 64.8248 74.6843 64.5354 75.0198 63.9564L75.6975 64.2854C75.4869 64.6735 75.2106 64.9827 74.8554 65.2064C74.5001 65.4301 74.0725 65.5419 73.5725 65.5419C73.1119 65.5419 72.7041 65.4301 72.3422 65.213L72.3225 65.2261ZM74.9409 62.4959C74.9277 62.2985 74.8685 62.0946 74.7698 61.8906C74.6712 61.6933 74.5133 61.5222 74.2962 61.384C74.0791 61.2459 73.8093 61.1801 73.4804 61.1801C73.1054 61.1801 72.783 61.2985 72.5264 61.5419C72.2633 61.7854 72.0922 62.1012 72.0133 62.4959H74.9409ZM76.7106 60.6077H77.4738V61.3775H77.5133C77.6054 61.1143 77.7896 60.8972 78.0593 60.7196C78.3291 60.5419 78.6119 60.4564 78.908 60.4564C79.1251 60.4564 79.3159 60.4893 79.4738 60.5617V61.4169C79.2698 61.3183 79.0462 61.2656 78.7962 61.2656C78.5659 61.2656 78.3488 61.3314 78.158 61.463C77.9606 61.5946 77.8093 61.7722 77.6909 61.9959C77.5725 62.2196 77.5198 62.4564 77.5198 62.7196V65.4038H76.7172V60.6077H76.7106Z" fill="#5F6368" stroke="#5F6368" stroke-width="0.164474" stroke-miterlimit="10"/>
<path d="M60.9537 36.7448C60.9537 35.7382 60.7958 34.7711 60.6314 33.8369H47.3945V39.3238H54.8222C54.4932 41.1001 53.6511 42.6067 52.1445 43.6198V47.1988H56.7432C59.4208 44.7251 60.9603 41.0672 60.9603 36.7448H60.9537Z" fill="#4284F4"/>
<path d="M47.3493 50.6257C51.1717 50.6257 54.3888 49.3691 56.7375 47.1981L52.1388 43.6191C50.8756 44.4744 49.2506 44.9744 47.3493 44.9744C43.6651 44.9744 40.5335 42.481 39.4151 39.1191H34.6914V42.7968C37.0204 47.4415 41.8098 50.6257 47.3493 50.6257Z" fill="#34A853"/>
<path d="M39.4217 39.1265C39.1388 38.2713 38.9809 37.3634 38.9809 36.4226C38.9809 35.4818 39.1388 34.5739 39.4217 33.7186V30.041H34.698C33.7375 31.9621 33.1914 34.1265 33.1914 36.4226C33.1914 38.7186 33.7375 40.8831 34.698 42.8042L39.4217 39.1265Z" fill="#FBBC04"/>
<path d="M47.3493 27.8642C49.4282 27.8642 51.2967 28.5813 52.7704 29.9892L56.8296 25.9168C54.3756 23.6208 51.1717 22.2129 47.3493 22.2129C41.8164 22.2129 37.0204 25.3971 34.6914 30.0418L39.4151 33.7195C40.5335 30.3576 43.6585 27.8642 47.3493 27.8642Z" fill="#EA4335"/>
</svg>
