<svg width="32" height="33" viewBox="0 0 32 33" fill="none" xmlns="http://www.w3.org/2000/svg">
<g id="laptop-01">
<path id="Icon" d="M3.99935 21.6572V9.92389C3.99935 8.43042 3.99935 7.68368 4.29 7.11325C4.54566 6.61149 4.95361 6.20354 5.45537 5.94788C6.02581 5.65723 6.77254 5.65723 8.26602 5.65723H23.7327C25.2262 5.65723 25.9729 5.65723 26.5433 5.94788C27.0451 6.20354 27.453 6.61149 27.7087 7.11325C27.9993 7.68368 27.9993 8.43042 27.9993 9.92389V21.6572H20.883C20.5569 21.6572 20.3938 21.6572 20.2404 21.6941C20.1043 21.7267 19.9743 21.7806 19.855 21.8537C19.7204 21.9362 19.6051 22.0515 19.3745 22.2821L19.2909 22.3657C19.0603 22.5963 18.945 22.7116 18.8104 22.7941C18.6911 22.8672 18.561 22.9211 18.425 22.9537C18.2715 22.9906 18.1085 22.9906 17.7824 22.9906H14.2163C13.8902 22.9906 13.7272 22.9906 13.5737 22.9537C13.4377 22.9211 13.3076 22.8672 13.1883 22.7941C13.0537 22.7116 12.9384 22.5963 12.7078 22.3657L12.6242 22.2821C12.3936 22.0515 12.2783 21.9362 12.1437 21.8537C12.0244 21.7806 11.8944 21.7267 11.7583 21.6941C11.6049 21.6572 11.4418 21.6572 11.1157 21.6572H3.99935ZM3.99935 21.6572C3.26297 21.6572 2.66602 22.2542 2.66602 22.9906V23.435C2.66602 24.2616 2.66602 24.675 2.75688 25.0141C3.00346 25.9343 3.72225 26.6531 4.6425 26.8997C4.98161 26.9906 5.39493 26.9906 6.22157 26.9906H25.7771C26.6038 26.9906 27.0171 26.9906 27.3562 26.8997C28.2764 26.6531 28.9952 25.9343 29.2418 25.0141C29.3327 24.675 29.3327 24.2616 29.3327 23.435C29.3327 23.0217 29.3327 22.815 29.2873 22.6455C29.164 22.1853 28.8046 21.8259 28.3444 21.7027C28.1749 21.6572 27.9682 21.6572 27.5549 21.6572H26.666" stroke="url(#paint0_linear_269_10454)" stroke-width="2" stroke-linecap="round" stroke-linejoin="round"/>
</g>
<defs>
<linearGradient id="paint0_linear_269_10454" x1="14.9995" y1="-17.925" x2="15.7001" y2="26.9952" gradientUnits="userSpaceOnUse">
<stop stop-color="white"/>
<stop offset="1" stop-color="#0095FF"/>
</linearGradient>
</defs>
</svg>
