<svg width="182" height="91" viewBox="0 0 182 91" fill="none" xmlns="http://www.w3.org/2000/svg">
<path d="M0.263672 2.36425C0.263672 1.25969 1.1591 0.364258 2.26367 0.364258H179.264C180.368 0.364258 181.264 1.25969 181.264 2.36426V88.3774C181.264 89.482 180.368 90.3774 179.264 90.3774H2.26368C1.15911 90.3774 0.263672 89.482 0.263672 88.3774V2.36425Z" fill="white"/>
<g clip-path="url(#clip0_1509_13190)">
<path d="M33.6057 16.5034H40.2873V17.7255H37.6605V24.597H36.2151V17.7255H33.5996V16.5029H33.6053L33.6057 16.5034ZM40.0021 18.7363H41.2372V19.8676H41.2603C41.3013 19.7076 41.3768 19.5533 41.4876 19.4046C41.7244 19.0859 42.0451 18.8388 42.4139 18.6907C42.6013 18.6166 42.8007 18.5778 43.0023 18.5763C43.1531 18.5763 43.2644 18.582 43.3228 18.5881C43.3808 18.5938 43.4388 18.605 43.5029 18.6107V19.8559C43.4083 19.8394 43.3132 19.826 43.2177 19.8159C43.1229 19.8047 43.0275 19.799 42.932 19.7989C42.7104 19.7989 42.5011 19.8446 42.3031 19.9307C42.1051 20.0159 41.9359 20.1472 41.7907 20.3133C41.6358 20.499 41.5171 20.7121 41.4409 20.9415C41.3537 21.1928 41.3127 21.478 41.3127 21.8041V24.5914H39.9964V18.7363H40.0021ZM49.5556 24.5975H48.2625V23.7806H48.2389C48.0758 24.078 47.8372 24.3123 47.5167 24.4893C47.1961 24.6662 46.8699 24.7575 46.538 24.7575C45.7516 24.7575 45.1803 24.5693 44.8314 24.1862C44.4816 23.8036 44.3067 23.2267 44.3067 22.4554V18.7368H45.6234V22.3298C45.6234 22.8441 45.7224 23.2098 45.9265 23.421C46.1245 23.6323 46.4097 23.741 46.7709 23.741C47.0504 23.741 47.2776 23.701 47.4639 23.6149C47.6505 23.5293 47.8019 23.421 47.9127 23.278C48.0291 23.141 48.1107 22.9698 48.1635 22.7754C48.2153 22.581 48.2389 22.3698 48.2389 22.1415V18.7425H49.5556V24.5975ZM51.7982 22.7185C51.8392 23.0949 51.9844 23.3585 52.2352 23.5123C52.4912 23.661 52.7943 23.741 53.1498 23.741C53.2723 23.741 53.4119 23.7293 53.5693 23.7123C53.7263 23.6949 53.8776 23.6549 54.012 23.6041C54.1515 23.5523 54.2619 23.4723 54.3552 23.3698C54.4429 23.2662 54.4834 23.1354 54.4778 22.9698C54.477 22.8929 54.46 22.817 54.428 22.7471C54.3959 22.6772 54.3494 22.6149 54.2916 22.5641C54.1746 22.4559 54.0294 22.3759 53.8484 22.3072C53.6467 22.2374 53.4404 22.1821 53.2308 22.1415C52.998 22.0959 52.7651 22.0441 52.5265 21.9928C52.2862 21.9409 52.0489 21.876 51.8156 21.7985C51.5968 21.7285 51.3905 21.6244 51.2042 21.4902C51.0226 21.3638 50.8746 21.1952 50.7728 20.9989C50.6625 20.7989 50.6097 20.5533 50.6097 20.2563C50.6097 19.9363 50.6913 19.6738 50.8487 19.4563C51.0075 19.2407 51.2126 19.0633 51.4488 18.9368C51.7028 18.8028 51.9757 18.7084 52.2583 18.6568C52.5553 18.6055 52.841 18.5768 53.1087 18.5768C53.4175 18.5768 53.7145 18.6112 53.9946 18.6742C54.2657 18.7322 54.5241 18.8385 54.7573 18.9881C54.9846 19.1312 55.1708 19.3194 55.3226 19.5481C55.4739 19.7763 55.5672 20.0563 55.6078 20.382H54.2331C54.169 20.0738 54.029 19.8625 53.8022 19.7594C53.575 19.6512 53.3129 19.5994 53.0215 19.5994C52.9282 19.5994 52.8174 19.605 52.6896 19.6225C52.5665 19.6388 52.4454 19.6675 52.3281 19.7081C52.2208 19.7475 52.1235 19.8098 52.0428 19.8907C52.0037 19.9329 51.9733 19.9824 51.9533 20.0363C51.9333 20.0902 51.9242 20.1476 51.9264 20.205C51.9264 20.365 51.9844 20.4907 52.0952 20.5876C52.206 20.6846 52.3516 20.7646 52.5322 20.8333C52.7127 20.8963 52.9169 20.9533 53.1498 20.9989C53.3826 21.0446 53.6212 21.0959 53.8663 21.1476C54.1049 21.1989 54.3378 21.2676 54.5711 21.3415C54.804 21.4159 55.0077 21.5189 55.1887 21.6502C55.3692 21.7815 55.5149 21.9415 55.6252 22.1359C55.736 22.3298 55.7945 22.5754 55.7945 22.861C55.7945 23.2093 55.7129 23.501 55.5493 23.7467C55.3867 23.9867 55.1769 24.1862 54.9204 24.3349C54.652 24.4893 54.3611 24.6011 54.0582 24.6662C53.7501 24.7339 53.4355 24.7683 53.1201 24.7688C52.7667 24.7728 52.4144 24.7305 52.0721 24.6432C51.7515 24.5575 51.4719 24.4319 51.2391 24.2667C51.0089 24.0997 50.8196 23.8829 50.6856 23.6323C50.5517 23.381 50.4815 23.078 50.4702 22.7298H51.7982V22.7185ZM56.1438 18.7373H57.1399V16.9773H58.4566V18.7373H59.6446V19.702H58.4571V22.8328C58.4571 22.9693 58.4628 23.0841 58.4745 23.1867C58.4859 23.2841 58.5151 23.3698 58.5561 23.438C58.6007 23.5097 58.6683 23.5641 58.748 23.5923C58.8357 23.6267 58.946 23.6441 59.0978 23.6441C59.1906 23.6441 59.284 23.6441 59.3773 23.638C59.4707 23.6323 59.5635 23.621 59.6569 23.598V24.5975C59.5112 24.6149 59.3655 24.6262 59.2317 24.6432C59.0905 24.6595 58.9485 24.6672 58.8064 24.6662C58.4571 24.6662 58.1775 24.6319 57.9673 24.5693C57.758 24.5062 57.5887 24.4093 57.4723 24.2836C57.3497 24.158 57.2743 24.0036 57.2276 23.8149C57.1822 23.6027 57.157 23.3867 57.1522 23.1698V19.7128H56.1561V18.7359H56.1443L56.1438 18.7373ZM60.5766 18.7373H61.8236V19.5307H61.8471C62.0329 19.1881 62.2893 18.9481 62.6212 18.7999C62.9605 18.6493 63.3281 18.5732 63.6994 18.5768C64.1708 18.5768 64.5786 18.6568 64.9284 18.8225C65.2777 18.9825 65.5691 19.2055 65.802 19.4907C66.0348 19.7763 66.2041 20.1076 66.3205 20.485C66.4392 20.8776 66.4981 21.2858 66.4954 21.6959C66.4954 22.0898 66.4431 22.4723 66.338 22.8385C66.2414 23.1916 66.0815 23.5244 65.8661 23.8206C65.6543 24.1061 65.3792 24.3389 65.0623 24.5006C64.7361 24.6719 64.3575 24.7575 63.9148 24.7575C63.7213 24.7573 63.5282 24.74 63.3378 24.7058C63.1478 24.6716 62.9623 24.6162 62.7848 24.5406C62.6084 24.4671 62.4435 24.3689 62.295 24.2488C62.1484 24.1321 62.0207 23.9935 61.9164 23.838H61.8929V26.7627H60.5766V18.7363V18.7373ZM65.1787 21.6728C65.179 21.4123 65.1438 21.153 65.0741 20.902C65.0095 20.6641 64.9029 20.4398 64.7591 20.2394C64.6228 20.0488 64.4459 19.8907 64.241 19.7763C64.0211 19.6577 63.7745 19.5968 63.5245 19.5994C62.971 19.5994 62.5515 19.7876 62.2719 20.165C61.9923 20.542 61.8523 21.045 61.8523 21.6728C61.8523 21.9698 61.8877 22.2441 61.9631 22.4954C62.0385 22.7467 62.1437 22.9641 62.295 23.1467C62.4411 23.3298 62.6156 23.4723 62.8197 23.5749C63.0234 23.6836 63.2624 23.7349 63.5301 23.7349C63.8333 23.7349 64.0836 23.6723 64.2934 23.5523C64.4965 23.4357 64.6715 23.2758 64.8058 23.0841C64.9397 22.8898 65.0392 22.6723 65.0972 22.4272C65.1508 22.1793 65.1781 21.9264 65.1787 21.6728ZM67.5029 16.5034H68.8196V17.726H67.5029V16.5034ZM67.5029 18.7368H68.8196V24.5975H67.5029V18.7368ZM69.9963 16.5034H71.313V24.5975H69.9963V16.5034ZM75.3498 24.7575C74.8718 24.7575 74.4465 24.6775 74.0741 24.5236C73.7171 24.3775 73.3939 24.1596 73.1247 23.8836C72.8629 23.6021 72.6624 23.2694 72.5358 22.9067C72.3973 22.5063 72.3284 22.0851 72.3322 21.6615C72.3322 21.2159 72.402 20.805 72.5358 20.4276C72.6625 20.0651 72.863 19.7326 73.1247 19.4512C73.3806 19.1768 73.7012 18.9655 74.0741 18.8112C74.4465 18.6568 74.8718 18.5768 75.3498 18.5768C75.8274 18.5768 76.2526 18.6568 76.6255 18.8112C76.9984 18.9655 77.3128 19.1829 77.5749 19.4512C77.8366 19.7325 78.037 20.065 78.1633 20.4276C78.2972 20.8046 78.3669 21.2159 78.3669 21.6615C78.3669 22.1133 78.2972 22.5298 78.1633 22.9067C78.0371 23.2695 77.8367 23.6022 77.5749 23.8836C77.3185 24.158 76.9984 24.3693 76.6255 24.5236C76.2526 24.6775 75.8274 24.7575 75.3498 24.7575ZM75.3498 23.7349C75.6411 23.7349 75.8971 23.6723 76.1126 23.5523C76.3226 23.4357 76.5038 23.2736 76.6429 23.078C76.7825 22.8841 76.8815 22.661 76.9517 22.4154C77.0158 22.1698 77.0507 21.9185 77.0507 21.6615C77.0507 21.4102 77.0158 21.1646 76.9517 20.9133C76.8917 20.6749 76.7869 20.4501 76.6429 20.2507C76.5035 20.057 76.3222 19.8969 76.1126 19.7825C75.8971 19.6625 75.6411 19.5994 75.3498 19.5994C75.0585 19.5994 74.802 19.6625 74.5866 19.7825C74.3783 19.8987 74.1975 20.0584 74.0567 20.2507C73.9147 20.4513 73.8101 20.6757 73.7479 20.9133C73.6834 21.1575 73.6499 21.4089 73.6484 21.6615C73.6484 21.9185 73.6838 22.1698 73.7479 22.4154C73.812 22.661 73.9166 22.8841 74.0567 23.078C74.1962 23.2723 74.3711 23.4323 74.5866 23.5523C74.802 23.678 75.0585 23.7349 75.3498 23.7349ZM78.7516 18.7373H79.7478V16.9773H81.0645V18.7373H82.2525V19.702H81.0645V22.8328C81.0645 22.9693 81.0701 23.0841 81.0814 23.1867C81.0932 23.2841 81.1224 23.3698 81.1634 23.438C81.2079 23.5098 81.2756 23.5642 81.3553 23.5923C81.443 23.6267 81.5533 23.6441 81.7051 23.6441C81.798 23.6441 81.8913 23.6441 81.9847 23.638C82.078 23.6323 82.1709 23.621 82.2642 23.598V24.5975C82.1186 24.6149 81.9729 24.6262 81.839 24.6432C81.6979 24.6595 81.5559 24.6672 81.4138 24.6662C81.0644 24.6662 80.7844 24.6319 80.5746 24.5693C80.3653 24.5062 80.1961 24.4093 80.0796 24.2836C79.9575 24.158 79.8816 24.0036 79.835 23.8149C79.7897 23.6027 79.7644 23.3867 79.7595 23.1698V19.7128H78.7634V18.7359H78.7516V18.7373Z" fill="#09090B"/>
<path d="M32.0674 16.5031H26.0326L24.1686 10.8706L22.298 16.5035L16.2637 16.4974L21.151 19.9817L19.2813 25.608L24.1686 22.1294L29.0502 25.608L27.1862 19.9817L32.0674 16.5031Z" fill="#04DA8D"/>
<path d="M27.6047 21.2558L27.1851 19.9819L24.168 22.1297L27.6047 21.2558Z" fill="#126849"/>
</g>
<g clip-path="url(#clip1_1509_13190)">
<path d="M35.2637 30.8706H16.2637V49.8706H35.2637V30.8706Z" fill="#00B67A"/>
<path d="M55.8457 30.8706H36.8457V49.8706H55.8457V30.8706Z" fill="#00B67A"/>
<path d="M76.4316 30.8706H57.4316V49.8706H76.4316V30.8706Z" fill="#00B67A"/>
<path d="M97.0137 30.8706H78.0137V49.8706H97.0137V30.8706Z" fill="#00B67A"/>
<path d="M117.598 30.8706H108.098V49.8706H117.598V30.8706Z" fill="#DCDCE6"/>
<path d="M108.098 30.8706H98.5977V49.8706H108.098V30.8706Z" fill="#00B67A"/>
<path d="M25.7633 43.6761L28.6529 42.9438L29.8602 46.6646L25.7633 43.6761ZM32.4133 38.8667H27.3268L25.7633 34.0771L24.1997 38.8667H19.1133L23.2299 41.8355L21.6664 46.6251L25.7831 43.6563L28.3164 41.8355L32.4133 38.8667Z" fill="white"/>
<path d="M46.3492 43.6761L49.2388 42.9438L50.4461 46.6646L46.3492 43.6761ZM52.9992 38.8667H47.9128L46.3492 34.0771L44.7857 38.8667H39.6992L43.8159 41.8355L42.2523 46.6251L46.369 43.6563L48.9023 41.8355L52.9992 38.8667Z" fill="white"/>
<path d="M66.9313 43.6761L69.8208 42.9438L71.0281 46.6646L66.9313 43.6761ZM73.5813 38.8667H68.4948L66.9313 34.0771L65.3677 38.8667H60.2812L64.3979 41.8355L62.8344 46.6251L66.951 43.6563L69.4844 41.8355L73.5813 38.8667Z" fill="white"/>
<path d="M87.5133 43.6761L90.4029 42.9438L91.6102 46.6646L87.5133 43.6761ZM94.1633 38.8667H89.0768L87.5133 34.0771L85.9497 38.8667H80.8633L84.98 41.8355L83.4164 46.6251L87.5331 43.6563L90.0664 41.8355L94.1633 38.8667Z" fill="white"/>
<path d="M108.099 43.6761L110.989 42.9438L112.196 46.6646L108.099 43.6761ZM114.749 38.8667H109.663L108.099 34.0771L106.536 38.8667H101.449L105.566 41.8355L104.002 46.6251L108.119 43.6563L110.652 41.8355L114.749 38.8667Z" fill="white"/>
</g>
<path d="M16.5566 67.0776V66.1401H23.1074V67.0776H20.3652V74.8706H19.3105V67.0776H16.5566ZM23.4852 74.8706V68.3198H24.4462V69.3159H24.5165C24.6376 68.9917 24.8544 68.73 25.1669 68.5308C25.4833 68.3276 25.8368 68.2261 26.2274 68.2261C26.3016 68.2261 26.3934 68.228 26.5028 68.2319C26.6122 68.2319 26.6962 68.2339 26.7548 68.2378V69.2573C26.7196 69.2495 26.6415 69.2378 26.5204 69.2222C26.3993 69.2065 26.2704 69.1987 26.1337 69.1987C25.8173 69.1987 25.5341 69.2651 25.2841 69.3979C25.0341 69.5308 24.8368 69.7124 24.6923 69.9429C24.5516 70.1733 24.4813 70.437 24.4813 70.7339V74.8706H23.4852ZM31.6326 72.1987V68.3198H32.6287V74.8706H31.6326V73.7573H31.5623C31.406 74.0894 31.1658 74.3726 30.8416 74.6069C30.5212 74.8413 30.113 74.9565 29.617 74.9526C29.2068 74.9526 28.8435 74.8647 28.5271 74.689C28.2107 74.5093 27.9607 74.2358 27.7771 73.8687C27.5974 73.5015 27.5076 73.0386 27.5076 72.48V68.3198H28.5037V72.4214C28.5037 72.894 28.6384 73.2729 28.908 73.5581C29.1814 73.8433 29.5271 73.9839 29.9451 73.98C30.1951 73.98 30.449 73.9175 30.7068 73.7925C30.9685 73.6636 31.1873 73.4683 31.363 73.2065C31.5427 72.9409 31.6326 72.605 31.6326 72.1987ZM38.6666 69.7964L37.7643 70.0425C37.6784 69.8198 37.5299 69.6089 37.319 69.4097C37.112 69.2065 36.7877 69.105 36.3463 69.105C35.9479 69.105 35.6159 69.1987 35.3502 69.3862C35.0846 69.5698 34.9518 69.8003 34.9518 70.0776C34.9518 70.3276 35.0416 70.5269 35.2213 70.6753C35.4049 70.8237 35.6901 70.9448 36.0768 71.0386L37.0495 71.2729C37.6315 71.4136 38.0651 71.6304 38.3502 71.9233C38.6393 72.2163 38.7838 72.5894 38.7838 73.0425C38.7838 73.4175 38.6764 73.7534 38.4616 74.0503C38.2467 74.3472 37.9479 74.5815 37.5651 74.7534C37.1823 74.9253 36.737 75.0112 36.2291 75.0112C35.5612 75.0112 35.0084 74.8647 34.5709 74.5718C34.1373 74.2788 33.862 73.855 33.7448 73.3003L34.694 73.0659C34.7838 73.4175 34.9557 73.6812 35.2096 73.8569C35.4674 74.0327 35.8034 74.1206 36.2174 74.1206C36.6823 74.1206 37.0534 74.021 37.3307 73.8218C37.612 73.6187 37.7526 73.3784 37.7526 73.1011C37.7526 72.6401 37.4284 72.3315 36.7799 72.1753L35.6901 71.9175C35.0885 71.7729 34.6471 71.5522 34.3659 71.2554C34.0846 70.9585 33.944 70.5854 33.944 70.1362C33.944 69.7651 34.0475 69.437 34.2545 69.1519C34.4655 68.8667 34.7526 68.644 35.1159 68.4839C35.4791 68.3198 35.8893 68.2378 36.3463 68.2378C36.9987 68.2378 37.5084 68.3823 37.8756 68.6714C38.2467 68.9565 38.5104 69.3315 38.6666 69.7964ZM42.7007 68.3198V69.1753H39.314V68.3198H42.7007ZM40.2984 66.7612H41.2945V72.9956C41.2945 73.3354 41.3648 73.5854 41.5054 73.7456C41.646 73.9019 41.8687 73.98 42.1734 73.98C42.2398 73.98 42.3081 73.9761 42.3784 73.9683C42.4527 73.9604 42.5327 73.9487 42.6187 73.9331L42.8296 74.8354C42.7359 74.8706 42.6206 74.8979 42.4839 74.9175C42.3511 74.9409 42.2163 74.9526 42.0796 74.9526C41.5523 74.9526 41.1226 74.7964 40.7905 74.4839C40.4624 74.1714 40.2984 73.7651 40.2984 73.2651V66.7612ZM46.6762 75.0229C46.0512 75.0229 45.5102 74.9233 45.0531 74.7241C44.5961 74.521 44.2367 74.2397 43.975 73.8804C43.7172 73.5171 43.5707 73.0972 43.5355 72.6206H44.6254C44.6566 72.9487 44.768 73.2202 44.9594 73.4351C45.1547 73.6499 45.4027 73.8101 45.7035 73.9155C46.0043 74.021 46.3285 74.0737 46.6762 74.0737C47.0785 74.0737 47.4398 74.0073 47.7602 73.8745C48.0844 73.7417 48.3402 73.5562 48.5277 73.3179C48.7152 73.0796 48.809 72.8003 48.809 72.48C48.809 72.1909 48.727 71.9565 48.5629 71.7769C48.3988 71.5972 48.184 71.4507 47.9184 71.3374C47.6566 71.2241 47.3715 71.1245 47.0629 71.0386L45.9965 70.7339C45.3129 70.5386 44.7719 70.2593 44.3734 69.896C43.9789 69.5288 43.7816 69.0503 43.7816 68.4604C43.7816 67.9722 43.9125 67.5464 44.1742 67.1831C44.4398 66.8159 44.7973 66.5308 45.2465 66.3276C45.6996 66.1245 46.2035 66.0229 46.7582 66.0229C47.3207 66.0229 47.8207 66.1245 48.2582 66.3276C48.6957 66.5269 49.0434 66.8003 49.3012 67.1479C49.559 67.4917 49.6957 67.8823 49.7113 68.3198H48.6801C48.6293 67.8901 48.4223 67.5562 48.059 67.3179C47.6996 67.0796 47.2543 66.9604 46.723 66.9604C46.3402 66.9604 46.0043 67.0229 45.7152 67.1479C45.4262 67.2729 45.2016 67.4448 45.0414 67.6636C44.8813 67.8823 44.8012 68.1323 44.8012 68.4136C44.8012 68.7222 44.8969 68.9722 45.0883 69.1636C45.2797 69.3511 45.5063 69.4976 45.768 69.603C46.0336 69.7085 46.2738 69.7925 46.4887 69.855L47.3676 70.1011C47.5941 70.1636 47.8461 70.2476 48.1234 70.353C48.4047 70.4585 48.6742 70.6011 48.932 70.7808C49.1938 70.9604 49.4086 71.1909 49.5766 71.4722C49.7445 71.7495 49.8285 72.0933 49.8285 72.5034C49.8285 72.9722 49.7055 73.3979 49.4594 73.7808C49.2133 74.1597 48.8559 74.4624 48.3871 74.689C47.9184 74.9116 47.348 75.0229 46.6762 75.0229ZM53.6399 75.0112C53.0305 75.0112 52.5032 74.8667 52.0579 74.5776C51.6165 74.2847 51.2747 73.8843 51.0325 73.3765C50.7942 72.8687 50.6751 72.2886 50.6751 71.6362C50.6751 70.9683 50.7981 70.3804 51.0442 69.8726C51.2903 69.3608 51.6341 68.9604 52.0755 68.6714C52.5208 68.3823 53.0384 68.2378 53.6282 68.2378C54.0891 68.2378 54.5032 68.3237 54.8704 68.4956C55.2415 68.6636 55.5442 68.9019 55.7786 69.2104C56.0169 69.519 56.1634 69.8784 56.218 70.2886H55.2102C55.1595 70.0894 55.0677 69.9019 54.9348 69.7261C54.802 69.5503 54.6263 69.4097 54.4075 69.3042C54.1927 69.1948 53.9368 69.1401 53.6399 69.1401C53.2493 69.1401 52.9075 69.2417 52.6145 69.4448C52.3216 69.6479 52.093 69.9351 51.929 70.3062C51.7649 70.6733 51.6829 71.105 51.6829 71.6011C51.6829 72.105 51.763 72.5464 51.9231 72.9253C52.0833 73.3003 52.3098 73.5913 52.6028 73.7983C52.8997 74.0054 53.2454 74.1089 53.6399 74.1089C54.0345 74.1089 54.3723 74.0073 54.6536 73.8042C54.9348 73.5972 55.1204 73.3159 55.2102 72.9604H56.218C56.1634 73.3472 56.0227 73.6948 55.7962 74.0034C55.5735 74.312 55.2786 74.5581 54.9114 74.7417C54.5481 74.9214 54.1243 75.0112 53.6399 75.0112ZM59.9357 75.0112C59.3459 75.0112 58.8283 74.8706 58.383 74.5894C57.9377 74.3081 57.59 73.9136 57.34 73.4058C57.0939 72.8979 56.9709 72.3081 56.9709 71.6362C56.9709 70.9526 57.0939 70.3569 57.34 69.8491C57.59 69.3374 57.9377 68.9409 58.383 68.6597C58.8283 68.3784 59.3459 68.2378 59.9357 68.2378C60.5295 68.2378 61.049 68.3784 61.4943 68.6597C61.9396 68.9409 62.2873 69.3374 62.5373 69.8491C62.7873 70.3569 62.9123 70.9526 62.9123 71.6362C62.9123 72.3081 62.7873 72.8979 62.5373 73.4058C62.2873 73.9136 61.9396 74.3081 61.4943 74.5894C61.049 74.8706 60.5295 75.0112 59.9357 75.0112ZM59.9357 74.1089C60.3888 74.1089 60.7599 73.9937 61.049 73.7632C61.338 73.5327 61.5529 73.23 61.6935 72.855C61.8341 72.4761 61.9045 72.0698 61.9045 71.6362C61.9045 71.1948 61.8341 70.7847 61.6935 70.4058C61.5529 70.0269 61.338 69.7222 61.049 69.4917C60.7599 69.2573 60.3888 69.1401 59.9357 69.1401C59.4904 69.1401 59.1232 69.2573 58.8341 69.4917C58.5451 69.7222 58.3302 70.0269 58.1896 70.4058C58.049 70.7847 57.9787 71.1948 57.9787 71.6362C57.9787 72.0698 58.049 72.4761 58.1896 72.855C58.3302 73.23 58.5451 73.5327 58.8341 73.7632C59.1232 73.9937 59.4904 74.1089 59.9357 74.1089ZM64.0049 74.8706V68.3198H64.9659V69.3159H65.0362C65.1573 68.9917 65.3741 68.73 65.6866 68.5308C66.003 68.3276 66.3565 68.2261 66.7471 68.2261C66.8213 68.2261 66.9131 68.228 67.0225 68.2319C67.1319 68.2319 67.2159 68.2339 67.2745 68.2378V69.2573C67.2393 69.2495 67.1612 69.2378 67.0401 69.2222C66.919 69.2065 66.7901 69.1987 66.6534 69.1987C66.337 69.1987 66.0537 69.2651 65.8037 69.3979C65.5537 69.5308 65.3565 69.7124 65.212 69.9429C65.0713 70.1733 65.001 70.437 65.001 70.7339V74.8706H64.0049ZM70.5702 75.0112C69.9413 75.0112 69.3964 74.8706 68.9355 74.5894C68.4784 74.3081 68.1269 73.9155 67.8808 73.4116C67.6347 72.9038 67.5116 72.3159 67.5116 71.6479C67.5116 70.9761 67.6327 70.3843 67.8749 69.8726C68.1171 69.3608 68.457 68.9604 68.8945 68.6714C69.3359 68.3823 69.8515 68.2378 70.4413 68.2378C70.7812 68.2378 71.1191 68.2944 71.455 68.4077C71.7909 68.521 72.0956 68.7046 72.3691 68.9585C72.6464 69.2124 72.8671 69.5483 73.0312 69.9663C73.1952 70.3843 73.2773 70.8979 73.2773 71.5073V71.9409H68.2265V71.0737H72.7323L72.2695 71.4019C72.2695 70.9644 72.2011 70.5757 72.0644 70.2358C71.9277 69.896 71.7226 69.6284 71.4491 69.4331C71.1796 69.2378 70.8437 69.1401 70.4413 69.1401C70.039 69.1401 69.6933 69.2397 69.4042 69.439C69.1191 69.6343 68.9003 69.8901 68.748 70.2065C68.5956 70.5229 68.5195 70.8628 68.5195 71.2261V71.8003C68.5195 72.2964 68.6054 72.7163 68.7773 73.0601C68.9491 73.4038 69.1894 73.6655 69.498 73.8452C69.8066 74.021 70.164 74.1089 70.5702 74.1089C70.832 74.1089 71.0702 74.0718 71.2851 73.9976C71.4999 73.9194 71.6855 73.8042 71.8417 73.6519C71.998 73.4956 72.1171 73.3042 72.1991 73.0776L73.1718 73.3589C73.0702 73.687 72.8984 73.9761 72.6562 74.2261C72.4179 74.4722 72.121 74.6655 71.7655 74.8062C71.4101 74.9429 71.0116 75.0112 70.5702 75.0112Z" fill="#71717A"/>
<path d="M78.6562 73.2534V71.9937L82.3652 66.1401H83.4082V67.9331H82.7695L80.2734 71.8823V71.9526H85.4473V73.2534H78.6562ZM82.8164 74.8706V72.8726L82.8398 72.3042V66.1401H84.3281V74.8706H82.8164ZM87.3778 74.9702C87.1122 74.9702 86.8876 74.8804 86.704 74.7007C86.5243 74.5171 86.4345 74.2944 86.4345 74.0327C86.4345 73.771 86.5243 73.5503 86.704 73.3706C86.8876 73.187 87.1122 73.0952 87.3778 73.0952C87.6434 73.0952 87.8661 73.187 88.0458 73.3706C88.2294 73.5503 88.3212 73.771 88.3212 74.0327C88.3212 74.2944 88.2294 74.5171 88.0458 74.7007C87.8661 74.8804 87.6434 74.9702 87.3778 74.9702ZM92.5779 74.9878C91.9646 74.9878 91.4197 74.8843 90.9431 74.6772C90.4666 74.4663 90.0896 74.1733 89.8123 73.7983C89.5388 73.4233 89.3962 72.9897 89.3845 72.4976H90.9783C90.99 72.7358 91.0662 72.9429 91.2068 73.1187C91.3513 73.2905 91.5427 73.4253 91.781 73.5229C92.0193 73.6167 92.2849 73.6636 92.5779 73.6636C92.8904 73.6636 93.1658 73.6089 93.4041 73.4995C93.6462 73.3862 93.8357 73.2339 93.9724 73.0425C94.1091 72.8472 94.1775 72.6226 94.1775 72.3687C94.1775 72.103 94.1072 71.8687 93.9666 71.6655C93.8298 71.4624 93.6306 71.3042 93.3689 71.1909C93.1072 71.0776 92.7927 71.021 92.4255 71.021H91.6462V69.8022H92.4255C92.7224 69.8022 92.9861 69.7495 93.2166 69.644C93.447 69.5386 93.6267 69.3921 93.7556 69.2046C93.8845 69.0132 93.949 68.7905 93.949 68.5366C93.949 68.2905 93.8923 68.0757 93.7791 67.8921C93.6697 67.7085 93.5134 67.5659 93.3103 67.4644C93.1072 67.3628 92.8689 67.312 92.5955 67.312C92.3298 67.312 92.0818 67.3608 91.8513 67.4585C91.6248 67.5522 91.4412 67.687 91.3005 67.8628C91.1638 68.0386 91.0916 68.2495 91.0837 68.4956H89.5662C89.574 68.0073 89.7127 67.5776 89.9822 67.2065C90.2556 66.8354 90.6209 66.5464 91.0779 66.3394C91.5349 66.1284 92.0466 66.0229 92.613 66.0229C93.1912 66.0229 93.6951 66.1323 94.1248 66.3511C94.5584 66.5659 94.8923 66.8569 95.1267 67.2241C95.365 67.5913 95.4841 67.9956 95.4841 68.437C95.4841 68.9292 95.3396 69.3413 95.0505 69.6733C94.7615 70.0054 94.3806 70.2241 93.908 70.3296V70.394C94.5173 70.48 94.9841 70.7065 95.3084 71.0737C95.6365 71.4409 95.8005 71.8979 95.8005 72.4448C95.8005 72.9331 95.6619 73.3706 95.3845 73.7573C95.1072 74.1401 94.7263 74.4409 94.242 74.6597C93.7576 74.8784 93.2029 74.9878 92.5779 74.9878Z" fill="#71717A"/>
<path d="M109.014 74.9878C108.596 74.9878 108.188 74.9175 107.789 74.7769C107.391 74.6323 107.033 74.3979 106.717 74.0737C106.4 73.7456 106.148 73.3101 105.961 72.7671C105.773 72.2241 105.68 71.5522 105.68 70.7515C105.68 70.0054 105.76 69.3413 105.92 68.7593C106.08 68.1733 106.309 67.6772 106.605 67.271C106.906 66.8647 107.266 66.5562 107.684 66.3452C108.105 66.1304 108.578 66.0229 109.102 66.0229C109.652 66.0229 110.139 66.1323 110.561 66.3511C110.986 66.5659 111.33 66.8589 111.592 67.23C111.854 67.6011 112.016 68.0229 112.078 68.4956H110.525C110.447 68.1597 110.285 67.8921 110.039 67.6929C109.793 67.4937 109.48 67.394 109.102 67.394C108.5 67.394 108.035 67.6558 107.707 68.1792C107.383 68.7026 107.221 69.4253 107.221 70.3472H107.279C107.42 70.0972 107.6 69.8823 107.818 69.7026C108.041 69.519 108.291 69.3804 108.568 69.2866C108.85 69.189 109.146 69.1401 109.459 69.1401C109.971 69.1401 110.43 69.2632 110.836 69.5093C111.242 69.7515 111.564 70.0874 111.803 70.5171C112.041 70.9429 112.16 71.4312 112.16 71.9819C112.16 72.5562 112.029 73.0698 111.768 73.5229C111.506 73.9761 111.139 74.3335 110.666 74.5952C110.193 74.8569 109.643 74.9878 109.014 74.9878ZM109.002 73.7104C109.314 73.7104 109.592 73.6362 109.834 73.4878C110.08 73.3354 110.273 73.1323 110.414 72.8784C110.559 72.6206 110.631 72.3335 110.631 72.0171C110.631 71.7046 110.561 71.4233 110.42 71.1733C110.283 70.9194 110.094 70.7183 109.852 70.5698C109.613 70.4214 109.338 70.3472 109.025 70.3472C108.721 70.3472 108.443 70.4233 108.193 70.5757C107.947 70.728 107.752 70.9312 107.607 71.1851C107.463 71.439 107.391 71.7183 107.391 72.0229C107.391 72.3276 107.461 72.6089 107.602 72.8667C107.742 73.1206 107.934 73.3257 108.176 73.4819C108.418 73.6343 108.693 73.7104 109.002 73.7104ZM113.089 73.2534V71.9937L116.798 66.1401H117.841V67.9331H117.202L114.706 71.8823V71.9526H119.88V73.2534H113.089ZM117.249 74.8706V72.8726L117.272 72.3042V66.1401H118.761V74.8706H117.249Z" fill="#71717A"/>
<path d="M124.908 74.8706V68.3198H125.869V69.3159H125.939C126.061 68.9917 126.277 68.73 126.59 68.5308C126.906 68.3276 127.26 68.2261 127.65 68.2261C127.725 68.2261 127.816 68.228 127.926 68.2319C128.035 68.2319 128.119 68.2339 128.178 68.2378V69.2573C128.143 69.2495 128.064 69.2378 127.943 69.2222C127.822 69.2065 127.693 69.1987 127.557 69.1987C127.24 69.1987 126.957 69.2651 126.707 69.3979C126.457 69.5308 126.26 69.7124 126.115 69.9429C125.975 70.1733 125.904 70.437 125.904 70.7339V74.8706H124.908ZM131.474 75.0112C130.845 75.0112 130.3 74.8706 129.839 74.5894C129.382 74.3081 129.03 73.9155 128.784 73.4116C128.538 72.9038 128.415 72.3159 128.415 71.6479C128.415 70.9761 128.536 70.3843 128.778 69.8726C129.02 69.3608 129.36 68.9604 129.798 68.6714C130.239 68.3823 130.755 68.2378 131.345 68.2378C131.684 68.2378 132.022 68.2944 132.358 68.4077C132.694 68.521 132.999 68.7046 133.272 68.9585C133.55 69.2124 133.77 69.5483 133.934 69.9663C134.099 70.3843 134.181 70.8979 134.181 71.5073V71.9409H129.13V71.0737H133.636L133.173 71.4019C133.173 70.9644 133.104 70.5757 132.968 70.2358C132.831 69.896 132.626 69.6284 132.352 69.4331C132.083 69.2378 131.747 69.1401 131.345 69.1401C130.942 69.1401 130.597 69.2397 130.307 69.439C130.022 69.6343 129.804 69.8901 129.651 70.2065C129.499 70.5229 129.423 70.8628 129.423 71.2261V71.8003C129.423 72.2964 129.509 72.7163 129.681 73.0601C129.852 73.4038 130.093 73.6655 130.401 73.8452C130.71 74.021 131.067 74.1089 131.474 74.1089C131.735 74.1089 131.974 74.0718 132.188 73.9976C132.403 73.9194 132.589 73.8042 132.745 73.6519C132.901 73.4956 133.02 73.3042 133.102 73.0776L134.075 73.3589C133.974 73.687 133.802 73.9761 133.559 74.2261C133.321 74.4722 133.024 74.6655 132.669 74.8062C132.313 74.9429 131.915 75.0112 131.474 75.0112ZM140.359 68.3198L137.945 74.8706H136.914L134.5 68.3198H135.59L137.394 73.5464H137.465L139.269 68.3198H140.359ZM141.253 74.8706V68.3198H142.249V74.8706H141.253ZM141.756 67.23C141.561 67.23 141.393 67.1636 141.253 67.0308C141.112 66.8979 141.042 66.7378 141.042 66.5503C141.042 66.3628 141.112 66.2026 141.253 66.0698C141.393 65.937 141.561 65.8706 141.756 65.8706C141.952 65.8706 142.12 65.937 142.26 66.0698C142.401 66.2026 142.471 66.3628 142.471 66.5503C142.471 66.7378 142.401 66.8979 142.26 67.0308C142.12 67.1636 141.952 67.23 141.756 67.23ZM146.4 75.0112C145.771 75.0112 145.226 74.8706 144.765 74.5894C144.308 74.3081 143.957 73.9155 143.71 73.4116C143.464 72.9038 143.341 72.3159 143.341 71.6479C143.341 70.9761 143.462 70.3843 143.705 69.8726C143.947 69.3608 144.287 68.9604 144.724 68.6714C145.166 68.3823 145.681 68.2378 146.271 68.2378C146.611 68.2378 146.949 68.2944 147.285 68.4077C147.621 68.521 147.925 68.7046 148.199 68.9585C148.476 69.2124 148.697 69.5483 148.861 69.9663C149.025 70.3843 149.107 70.8979 149.107 71.5073V71.9409H144.056V71.0737H148.562L148.099 71.4019C148.099 70.9644 148.031 70.5757 147.894 70.2358C147.757 69.896 147.552 69.6284 147.279 69.4331C147.009 69.2378 146.673 69.1401 146.271 69.1401C145.869 69.1401 145.523 69.2397 145.234 69.439C144.949 69.6343 144.73 69.8901 144.578 70.2065C144.425 70.5229 144.349 70.8628 144.349 71.2261V71.8003C144.349 72.2964 144.435 72.7163 144.607 73.0601C144.779 73.4038 145.019 73.6655 145.328 73.8452C145.636 74.021 145.994 74.1089 146.4 74.1089C146.662 74.1089 146.9 74.0718 147.115 73.9976C147.33 73.9194 147.515 73.8042 147.671 73.6519C147.828 73.4956 147.947 73.3042 148.029 73.0776L149.001 73.3589C148.9 73.687 148.728 73.9761 148.486 74.2261C148.248 74.4722 147.951 74.6655 147.595 74.8062C147.24 74.9429 146.841 75.0112 146.4 75.0112ZM151.43 74.8706L149.438 68.3198H150.493L151.911 73.3354H151.981L153.375 68.3198H154.454L155.825 73.3237H155.895L157.313 68.3198H158.368L156.375 74.8706H155.391L153.95 69.8433H153.856L152.414 74.8706H151.43ZM163.89 69.7964L162.988 70.0425C162.902 69.8198 162.753 69.6089 162.542 69.4097C162.335 69.2065 162.011 69.105 161.57 69.105C161.171 69.105 160.839 69.1987 160.574 69.3862C160.308 69.5698 160.175 69.8003 160.175 70.0776C160.175 70.3276 160.265 70.5269 160.445 70.6753C160.628 70.8237 160.913 70.9448 161.3 71.0386L162.273 71.2729C162.855 71.4136 163.288 71.6304 163.574 71.9233C163.863 72.2163 164.007 72.5894 164.007 73.0425C164.007 73.4175 163.9 73.7534 163.685 74.0503C163.47 74.3472 163.171 74.5815 162.788 74.7534C162.406 74.9253 161.96 75.0112 161.452 75.0112C160.784 75.0112 160.232 74.8647 159.794 74.5718C159.361 74.2788 159.085 73.855 158.968 73.3003L159.917 73.0659C160.007 73.4175 160.179 73.6812 160.433 73.8569C160.691 74.0327 161.027 74.1206 161.441 74.1206C161.906 74.1206 162.277 74.021 162.554 73.8218C162.835 73.6187 162.976 73.3784 162.976 73.1011C162.976 72.6401 162.652 72.3315 162.003 72.1753L160.913 71.9175C160.312 71.7729 159.87 71.5522 159.589 71.2554C159.308 70.9585 159.167 70.5854 159.167 70.1362C159.167 69.7651 159.271 69.437 159.478 69.1519C159.689 68.8667 159.976 68.644 160.339 68.4839C160.702 68.3198 161.113 68.2378 161.57 68.2378C162.222 68.2378 162.732 68.3823 163.099 68.6714C163.47 68.9565 163.734 69.3315 163.89 69.7964Z" fill="#71717A"/>
<defs>
<clipPath id="clip0_1509_13190">
<rect width="66" height="16" fill="white" transform="translate(16.2637 10.8706)"/>
</clipPath>
<clipPath id="clip1_1509_13190">
<rect width="101.333" height="19" fill="white" transform="translate(16.2637 30.8706)"/>
</clipPath>
</defs>
</svg>
