<svg width="486" height="126" viewBox="0 0 486 126" fill="none" xmlns="http://www.w3.org/2000/svg">
<path d="M82.4521 5.3457H70.9408L65.9225 14.4285H4.49414L54.2992 100.468L89.9981 39.8262H63.406L82.4521 5.3457ZM72.3857 49.881L54.3702 80.4848L21.9571 24.4833H60.3741L46.3463 49.881H72.3932H72.3857Z" fill="#FCC72C"/>
<path d="M60.1953 110.6L66.0163 120.655L127.508 14.4277H86.2124L80.6789 24.4825H110.045L60.1953 110.6Z" fill="#2E2F38"/>
<path d="M167.92 55.3125C165.857 55.3125 164.008 54.8438 162.373 53.9062C160.738 52.9688 159.446 51.6094 158.498 49.8281C157.55 48.0469 157.076 45.8958 157.076 43.375C157.076 40.8333 157.55 38.6719 158.498 36.8906C159.456 35.099 160.753 33.7396 162.389 32.8125C164.035 31.875 165.878 31.4062 167.92 31.4062C169.274 31.4062 170.529 31.599 171.686 31.9844C172.842 32.3594 173.863 32.9115 174.748 33.6406C175.644 34.3594 176.373 35.2448 176.936 36.2969C177.498 37.3385 177.857 38.5312 178.014 39.875H173.045C172.951 39.2396 172.764 38.6667 172.482 38.1562C172.212 37.6458 171.852 37.2135 171.404 36.8594C170.967 36.5052 170.462 36.2344 169.889 36.0469C169.326 35.849 168.706 35.75 168.029 35.75C166.842 35.75 165.795 36.0521 164.889 36.6562C163.993 37.25 163.295 38.1146 162.795 39.25C162.305 40.375 162.061 41.75 162.061 43.375C162.061 45.0312 162.311 46.4271 162.811 47.5625C163.311 48.6875 164.008 49.5365 164.904 50.1094C165.8 50.6823 166.837 50.9688 168.014 50.9688C168.67 50.9688 169.279 50.8802 169.842 50.7031C170.404 50.526 170.904 50.2708 171.342 49.9375C171.779 49.6042 172.144 49.1979 172.436 48.7188C172.738 48.2292 172.941 47.6719 173.045 47.0469H178.014C177.889 48.1198 177.571 49.151 177.061 50.1406C176.561 51.1302 175.878 52.0156 175.014 52.7969C174.149 53.5677 173.123 54.1823 171.936 54.6406C170.748 55.0885 169.41 55.3125 167.92 55.3125ZM180.451 55V37.5312H185.123V40.5938H185.311C185.633 39.5104 186.17 38.6927 186.92 38.1406C187.67 37.5781 188.529 37.2969 189.498 37.2969C189.748 37.2969 190.008 37.3125 190.279 37.3438C190.561 37.3646 190.811 37.4062 191.029 37.4688V41.75C190.8 41.6771 190.482 41.6198 190.076 41.5781C189.68 41.526 189.311 41.5 188.967 41.5C188.269 41.5 187.639 41.6562 187.076 41.9688C186.514 42.2708 186.071 42.6979 185.748 43.25C185.436 43.7917 185.279 44.4167 185.279 45.125V55H180.451ZM199.623 55.3438C197.831 55.3438 196.285 54.9792 194.982 54.25C193.68 53.5208 192.68 52.4844 191.982 51.1406C191.295 49.7865 190.951 48.1875 190.951 46.3438C190.951 44.5521 191.295 42.9792 191.982 41.625C192.68 40.2708 193.66 39.2135 194.92 38.4531C196.191 37.6927 197.68 37.3125 199.389 37.3125C200.545 37.3125 201.623 37.5 202.623 37.875C203.623 38.2396 204.498 38.7917 205.248 39.5312C205.998 40.2604 206.581 41.1823 206.998 42.2969C207.415 43.401 207.623 44.6979 207.623 46.1875V47.5H192.873V44.5156H205.279L203.029 45.2969C203.029 44.4115 202.894 43.6406 202.623 42.9844C202.352 42.3281 201.946 41.8229 201.404 41.4688C200.873 41.1042 200.212 40.9219 199.42 40.9219C198.628 40.9219 197.956 41.1042 197.404 41.4688C196.863 41.8333 196.446 42.3281 196.154 42.9531C195.863 43.5781 195.717 44.2969 195.717 45.1094V47.2188C195.717 48.1667 195.883 48.9792 196.217 49.6562C196.55 50.3229 197.014 50.8385 197.607 51.2031C198.212 51.5573 198.904 51.7344 199.686 51.7344C200.227 51.7344 200.717 51.6562 201.154 51.5C201.592 51.3438 201.967 51.1146 202.279 50.8125C202.602 50.5104 202.842 50.1458 202.998 49.7188L207.467 50.0156C207.248 51.0885 206.79 52.026 206.092 52.8281C205.404 53.6198 204.514 54.2396 203.42 54.6875C202.326 55.125 201.061 55.3438 199.623 55.3438ZM214.67 55.3281C213.566 55.3281 212.571 55.1354 211.686 54.75C210.811 54.3542 210.123 53.7708 209.623 53C209.123 52.2292 208.873 51.2708 208.873 50.125C208.873 49.1458 209.05 48.3333 209.404 47.6875C209.758 47.0312 210.243 46.5 210.857 46.0938C211.472 45.6875 212.17 45.3802 212.951 45.1719C213.732 44.9635 214.561 44.8177 215.436 44.7344C216.446 44.6406 217.258 44.5469 217.873 44.4531C218.488 44.3594 218.936 44.2188 219.217 44.0312C219.508 43.8333 219.654 43.5521 219.654 43.1875V43.1094C219.654 42.3906 219.425 41.8333 218.967 41.4375C218.519 41.0417 217.883 40.8438 217.061 40.8438C216.196 40.8438 215.503 41.0365 214.982 41.4219C214.472 41.7969 214.133 42.276 213.967 42.8594L209.482 42.5C209.712 41.4375 210.16 40.5208 210.826 39.75C211.493 38.9688 212.352 38.3698 213.404 37.9531C214.467 37.526 215.696 37.3125 217.092 37.3125C218.061 37.3125 218.988 37.4271 219.873 37.6562C220.758 37.8854 221.545 38.2396 222.232 38.7188C222.93 39.1875 223.482 39.7969 223.889 40.5469C224.295 41.2969 224.498 42.1875 224.498 43.2188V55H219.889V52.5625H219.764C219.482 53.1146 219.107 53.599 218.639 54.0156C218.17 54.4219 217.607 54.7448 216.951 54.9844C216.295 55.2135 215.535 55.3281 214.67 55.3281ZM216.061 51.9844C216.769 51.9844 217.394 51.8438 217.936 51.5625C218.488 51.2708 218.915 50.8854 219.217 50.4062C219.529 49.9167 219.686 49.3698 219.686 48.7656V46.9062C219.54 47 219.331 47.0885 219.061 47.1719C218.8 47.2552 218.508 47.3281 218.186 47.3906C217.863 47.4531 217.54 47.5104 217.217 47.5625C216.894 47.6042 216.602 47.6458 216.342 47.6875C215.769 47.7708 215.269 47.9062 214.842 48.0938C214.415 48.2708 214.081 48.5156 213.842 48.8281C213.613 49.1302 213.498 49.5104 213.498 49.9688C213.498 50.625 213.738 51.125 214.217 51.4688C214.696 51.8125 215.311 51.9844 216.061 51.9844ZM236.592 37.5312V41.1875H226.076V37.5312H236.592ZM228.467 33.375H233.295V49.625C233.295 50.2083 233.425 50.6406 233.686 50.9219C233.946 51.1927 234.363 51.3281 234.936 51.3281C235.123 51.3281 235.331 51.3125 235.561 51.2812C235.79 51.25 235.988 51.2135 236.154 51.1719L236.92 54.7969C236.389 54.9531 235.873 55.0677 235.373 55.1406C234.883 55.2135 234.399 55.25 233.92 55.25C232.18 55.25 230.837 54.8177 229.889 53.9531C228.941 53.0781 228.467 51.849 228.467 50.2656V33.375ZM238.701 55V37.5312H243.529V55H238.701ZM241.107 35.2969C240.389 35.2969 239.774 35.0573 239.264 34.5781C238.753 34.099 238.498 33.5208 238.498 32.8438C238.498 32.1667 238.753 31.5938 239.264 31.125C239.774 30.6458 240.389 30.4062 241.107 30.4062C241.837 30.4062 242.456 30.6458 242.967 31.125C243.477 31.5938 243.732 32.1667 243.732 32.8438C243.732 33.5208 243.477 34.099 242.967 34.5781C242.456 35.0573 241.837 35.2969 241.107 35.2969ZM251.217 44.9062V55H246.389V37.5312H251.139V40.6406H251.311C251.706 39.6094 252.337 38.7969 253.201 38.2031C254.066 37.6094 255.149 37.3125 256.451 37.3125C257.66 37.3125 258.712 37.5781 259.607 38.1094C260.514 38.6406 261.217 39.3958 261.717 40.375C262.217 41.3542 262.467 42.526 262.467 43.8906V55H257.639V44.75C257.639 43.6875 257.363 42.8542 256.811 42.25C256.258 41.6354 255.498 41.3281 254.529 41.3281C253.883 41.3281 253.311 41.474 252.811 41.7656C252.311 42.0469 251.92 42.4531 251.639 42.9844C251.357 43.5156 251.217 44.1562 251.217 44.9062ZM273.139 61.9062C270.785 61.9062 268.941 61.4375 267.607 60.5C266.274 59.5729 265.462 58.4167 265.17 57.0312L269.639 56.4375C269.774 56.7917 269.988 57.1198 270.279 57.4219C270.571 57.724 270.962 57.9635 271.451 58.1406C271.941 58.3281 272.54 58.4219 273.248 58.4219C274.3 58.4219 275.17 58.1667 275.857 57.6562C276.545 57.1562 276.889 56.3073 276.889 55.1094V51.9062H276.686C276.477 52.3854 276.16 52.8438 275.732 53.2812C275.305 53.7188 274.758 54.0729 274.092 54.3438C273.425 54.6146 272.628 54.75 271.701 54.75C270.389 54.75 269.196 54.4479 268.123 53.8438C267.061 53.2292 266.206 52.2917 265.561 51.0312C264.925 49.7708 264.607 48.1771 264.607 46.25C264.607 44.2604 264.93 42.6042 265.576 41.2812C266.232 39.9583 267.097 38.9688 268.17 38.3125C269.243 37.6458 270.42 37.3125 271.701 37.3125C272.68 37.3125 273.498 37.4792 274.154 37.8125C274.821 38.1354 275.363 38.5417 275.779 39.0312C276.196 39.5208 276.508 40.0052 276.717 40.4844H276.904V37.5312H281.67V55.1875C281.67 56.6667 281.305 57.9062 280.576 58.9062C279.847 59.9062 278.842 60.6562 277.561 61.1562C276.279 61.6562 274.805 61.9062 273.139 61.9062ZM273.232 51.1094C274.399 51.1094 275.3 50.6771 275.936 49.8125C276.581 48.9479 276.904 47.75 276.904 46.2188C276.904 45.1979 276.758 44.3125 276.467 43.5625C276.186 42.8021 275.774 42.2135 275.232 41.7969C274.691 41.3698 274.024 41.1562 273.232 41.1562C272.441 41.1562 271.769 41.375 271.217 41.8125C270.675 42.2396 270.264 42.8333 269.982 43.5938C269.701 44.3542 269.561 45.2292 269.561 46.2188C269.561 47.2188 269.701 48.0885 269.982 48.8281C270.264 49.5573 270.675 50.1198 271.217 50.5156C271.769 50.9115 272.441 51.1094 273.232 51.1094ZM289.592 31.7188H295.107L300.42 41.75H300.639L305.951 31.7188H311.467L302.982 46.7812V55H298.092V46.7812L289.592 31.7188ZM317.279 55.3438C315.519 55.3438 313.993 54.9688 312.701 54.2188C311.42 53.4583 310.43 52.4062 309.732 51.0625C309.045 49.7083 308.701 48.1354 308.701 46.3438C308.701 44.5312 309.045 42.9531 309.732 41.6094C310.43 40.2552 311.42 39.2031 312.701 38.4531C313.993 37.6927 315.519 37.3125 317.279 37.3125C319.05 37.3125 320.576 37.6927 321.857 38.4531C323.149 39.2031 324.139 40.2552 324.826 41.6094C325.524 42.9531 325.873 44.5312 325.873 46.3438C325.873 48.1354 325.524 49.7083 324.826 51.0625C324.139 52.4062 323.149 53.4583 321.857 54.2188C320.576 54.9688 319.05 55.3438 317.279 55.3438ZM317.311 51.5625C318.113 51.5625 318.785 51.3385 319.326 50.8906C319.868 50.4323 320.274 49.8073 320.545 49.0156C320.826 48.224 320.967 47.3229 320.967 46.3125C320.967 45.2917 320.826 44.3906 320.545 43.6094C320.274 42.8281 319.868 42.2135 319.326 41.7656C318.785 41.3177 318.113 41.0938 317.311 41.0938C316.498 41.0938 315.816 41.3177 315.264 41.7656C314.722 42.2135 314.311 42.8281 314.029 43.6094C313.758 44.3906 313.623 45.2917 313.623 46.3125C313.623 47.3229 313.758 48.224 314.029 49.0156C314.311 49.8073 314.722 50.4323 315.264 50.8906C315.816 51.3385 316.498 51.5625 317.311 51.5625ZM339.201 47.5781V37.5312H344.029V55H339.389V51.8281H339.201C338.805 52.8385 338.154 53.6615 337.248 54.2969C336.342 54.9219 335.232 55.2292 333.92 55.2188C332.753 55.2188 331.722 54.9583 330.826 54.4375C329.941 53.9062 329.248 53.151 328.748 52.1719C328.258 51.1927 328.014 50.0208 328.014 48.6562V37.5312H332.842V47.8125C332.842 48.8333 333.118 49.6458 333.67 50.25C334.222 50.8438 334.956 51.1354 335.873 51.125C336.456 51.125 336.998 50.9948 337.498 50.7344C337.998 50.4635 338.404 50.0625 338.717 49.5312C339.04 49 339.201 48.349 339.201 47.5781ZM346.889 55V37.5312H351.561V40.5938H351.748C352.071 39.5104 352.607 38.6927 353.357 38.1406C354.107 37.5781 354.967 37.2969 355.936 37.2969C356.186 37.2969 356.446 37.3125 356.717 37.3438C356.998 37.3646 357.248 37.4062 357.467 37.4688V41.75C357.238 41.6771 356.92 41.6198 356.514 41.5781C356.118 41.526 355.748 41.5 355.404 41.5C354.706 41.5 354.076 41.6562 353.514 41.9688C352.951 42.2708 352.508 42.6979 352.186 43.25C351.873 43.7917 351.717 44.4167 351.717 45.125V55H346.889ZM370.607 55L363.951 31.7188H369.326L373.186 47.8906H373.389L377.623 31.7188H382.232L386.467 47.9375H386.67L390.529 31.7188H395.904L389.232 55H384.436L380.029 39.7812H379.842L375.42 55H370.607ZM403.779 55.3438C401.988 55.3438 400.441 54.9792 399.139 54.25C397.837 53.5208 396.837 52.4844 396.139 51.1406C395.451 49.7865 395.107 48.1875 395.107 46.3438C395.107 44.5521 395.451 42.9792 396.139 41.625C396.837 40.2708 397.816 39.2135 399.076 38.4531C400.347 37.6927 401.837 37.3125 403.545 37.3125C404.701 37.3125 405.779 37.5 406.779 37.875C407.779 38.2396 408.654 38.7917 409.404 39.5312C410.154 40.2604 410.738 41.1823 411.154 42.2969C411.571 43.401 411.779 44.6979 411.779 46.1875V47.5H397.029V44.5156H409.436L407.186 45.2969C407.186 44.4115 407.05 43.6406 406.779 42.9844C406.508 42.3281 406.102 41.8229 405.561 41.4688C405.029 41.1042 404.368 40.9219 403.576 40.9219C402.785 40.9219 402.113 41.1042 401.561 41.4688C401.019 41.8333 400.602 42.3281 400.311 42.9531C400.019 43.5781 399.873 44.2969 399.873 45.1094V47.2188C399.873 48.1667 400.04 48.9792 400.373 49.6562C400.706 50.3229 401.17 50.8385 401.764 51.2031C402.368 51.5573 403.061 51.7344 403.842 51.7344C404.383 51.7344 404.873 51.6562 405.311 51.5C405.748 51.3438 406.123 51.1146 406.436 50.8125C406.758 50.5104 406.998 50.1458 407.154 49.7188L411.623 50.0156C411.404 51.0885 410.946 52.026 410.248 52.8281C409.561 53.6198 408.67 54.2396 407.576 54.6875C406.482 55.125 405.217 55.3438 403.779 55.3438ZM423.779 55.2812C422.842 55.2812 422.045 55.125 421.389 54.8125C420.732 54.5 420.196 54.1094 419.779 53.6406C419.373 53.1615 419.055 52.6823 418.826 52.2031H418.607V55H413.857V31.7188H418.686V40.4844H418.826C419.045 40.0052 419.357 39.5208 419.764 39.0312C420.17 38.5417 420.701 38.1354 421.357 37.8125C422.014 37.4792 422.826 37.3125 423.795 37.3125C425.076 37.3125 426.248 37.6458 427.311 38.3125C428.383 38.9688 429.243 39.9635 429.889 41.2969C430.535 42.6302 430.857 44.2969 430.857 46.2969C430.857 48.2344 430.545 49.875 429.92 51.2188C429.295 52.5521 428.446 53.5625 427.373 54.25C426.311 54.9375 425.113 55.2812 423.779 55.2812ZM422.248 51.4375C423.04 51.4375 423.706 51.2188 424.248 50.7812C424.79 50.3438 425.201 49.7396 425.482 48.9688C425.764 48.1875 425.904 47.2917 425.904 46.2812C425.904 45.2708 425.764 44.3854 425.482 43.625C425.212 42.8542 424.805 42.25 424.264 41.8125C423.722 41.375 423.05 41.1562 422.248 41.1562C421.467 41.1562 420.8 41.3698 420.248 41.7969C419.706 42.2135 419.29 42.8073 418.998 43.5781C418.717 44.3385 418.576 45.2396 418.576 46.2812C418.576 47.3125 418.722 48.2135 419.014 48.9844C419.305 49.7552 419.722 50.3594 420.264 50.7969C420.816 51.224 421.477 51.4375 422.248 51.4375ZM447.482 42.5156L443.061 42.7812C442.946 42.2292 442.639 41.7552 442.139 41.3594C441.639 40.9531 440.967 40.75 440.123 40.75C439.373 40.75 438.743 40.9062 438.232 41.2188C437.732 41.5312 437.482 41.9479 437.482 42.4688C437.482 42.8854 437.644 43.2448 437.967 43.5469C438.3 43.8385 438.868 44.0677 439.67 44.2344L442.842 44.8594C444.54 45.2031 445.805 45.7604 446.639 46.5312C447.472 47.3021 447.889 48.3177 447.889 49.5781C447.889 50.7344 447.555 51.7448 446.889 52.6094C446.222 53.4635 445.305 54.1354 444.139 54.625C442.972 55.1042 441.633 55.3438 440.123 55.3438C437.811 55.3438 435.967 54.8594 434.592 53.8906C433.227 52.9219 432.43 51.6094 432.201 49.9531L436.936 49.7031C437.092 50.4115 437.446 50.9479 437.998 51.3125C438.55 51.6771 439.258 51.8594 440.123 51.8594C440.967 51.8594 441.649 51.6927 442.17 51.3594C442.701 51.026 442.967 50.6042 442.967 50.0938C442.967 49.2292 442.217 48.6458 440.717 48.3438L437.701 47.7188C436.003 47.375 434.738 46.7865 433.904 45.9531C433.071 45.1198 432.654 44.0521 432.654 42.75C432.654 41.625 432.962 40.6562 433.576 39.8438C434.191 39.0312 435.05 38.4062 436.154 37.9688C437.269 37.5312 438.571 37.3125 440.061 37.3125C442.269 37.3125 444.003 37.7812 445.264 38.7188C446.535 39.6458 447.274 40.9115 447.482 42.5156ZM449.92 55V37.5312H454.748V55H449.92ZM452.326 35.2969C451.607 35.2969 450.993 35.0573 450.482 34.5781C449.972 34.099 449.717 33.5208 449.717 32.8438C449.717 32.1667 449.972 31.5938 450.482 31.125C450.993 30.6458 451.607 30.4062 452.326 30.4062C453.055 30.4062 453.675 30.6458 454.186 31.125C454.696 31.5938 454.951 32.1667 454.951 32.8438C454.951 33.5208 454.696 34.099 454.186 34.5781C453.675 35.0573 453.055 35.2969 452.326 35.2969ZM466.873 37.5312V41.1875H456.357V37.5312H466.873ZM458.748 33.375H463.576V49.625C463.576 50.2083 463.706 50.6406 463.967 50.9219C464.227 51.1927 464.644 51.3281 465.217 51.3281C465.404 51.3281 465.613 51.3125 465.842 51.2812C466.071 51.25 466.269 51.2135 466.436 51.1719L467.201 54.7969C466.67 54.9531 466.154 55.0677 465.654 55.1406C465.165 55.2135 464.68 55.25 464.201 55.25C462.462 55.25 461.118 54.8177 460.17 53.9531C459.222 53.0781 458.748 51.849 458.748 50.2656V33.375ZM476.748 55.3438C474.956 55.3438 473.41 54.9792 472.107 54.25C470.805 53.5208 469.805 52.4844 469.107 51.1406C468.42 49.7865 468.076 48.1875 468.076 46.3438C468.076 44.5521 468.42 42.9792 469.107 41.625C469.805 40.2708 470.785 39.2135 472.045 38.4531C473.316 37.6927 474.805 37.3125 476.514 37.3125C477.67 37.3125 478.748 37.5 479.748 37.875C480.748 38.2396 481.623 38.7917 482.373 39.5312C483.123 40.2604 483.706 41.1823 484.123 42.2969C484.54 43.401 484.748 44.6979 484.748 46.1875V47.5H469.998V44.5156H482.404L480.154 45.2969C480.154 44.4115 480.019 43.6406 479.748 42.9844C479.477 42.3281 479.071 41.8229 478.529 41.4688C477.998 41.1042 477.337 40.9219 476.545 40.9219C475.753 40.9219 475.081 41.1042 474.529 41.4688C473.988 41.8333 473.571 42.3281 473.279 42.9531C472.988 43.5781 472.842 44.2969 472.842 45.1094V47.2188C472.842 48.1667 473.008 48.9792 473.342 49.6562C473.675 50.3229 474.139 50.8385 474.732 51.2031C475.337 51.5573 476.029 51.7344 476.811 51.7344C477.352 51.7344 477.842 51.6562 478.279 51.5C478.717 51.3438 479.092 51.1146 479.404 50.8125C479.727 50.5104 479.967 50.1458 480.123 49.7188L484.592 50.0156C484.373 51.0885 483.915 52.026 483.217 52.8281C482.529 53.6198 481.639 54.2396 480.545 54.6875C479.451 55.125 478.186 55.3438 476.748 55.3438ZM157.42 95V77.5312H162.248V95H157.42ZM159.826 75.2969C159.107 75.2969 158.493 75.0573 157.982 74.5781C157.472 74.099 157.217 73.5208 157.217 72.8438C157.217 72.1667 157.472 71.5938 157.982 71.125C158.493 70.6458 159.107 70.4062 159.826 70.4062C160.555 70.4062 161.175 70.6458 161.686 71.125C162.196 71.5938 162.451 72.1667 162.451 72.8438C162.451 73.5208 162.196 74.099 161.686 74.5781C161.175 75.0573 160.555 75.2969 159.826 75.2969ZM169.936 84.9062V95H165.107V77.5312H169.857V80.6406H170.029C170.425 79.6094 171.055 78.7969 171.92 78.2031C172.785 77.6094 173.868 77.3125 175.17 77.3125C176.378 77.3125 177.43 77.5781 178.326 78.1094C179.232 78.6406 179.936 79.3958 180.436 80.375C180.936 81.3542 181.186 82.526 181.186 83.8906V95H176.357V84.75C176.357 83.6875 176.081 82.8542 175.529 82.25C174.977 81.6354 174.217 81.3281 173.248 81.3281C172.602 81.3281 172.029 81.474 171.529 81.7656C171.029 82.0469 170.639 82.4531 170.357 82.9844C170.076 83.5156 169.936 84.1562 169.936 84.9062ZM199.686 77.5312V81.1875H189.17V77.5312H199.686ZM191.561 73.375H196.389V89.625C196.389 90.2083 196.519 90.6406 196.779 90.9219C197.04 91.1927 197.456 91.3281 198.029 91.3281C198.217 91.3281 198.425 91.3125 198.654 91.2812C198.883 91.25 199.081 91.2135 199.248 91.1719L200.014 94.7969C199.482 94.9531 198.967 95.0677 198.467 95.1406C197.977 95.2135 197.493 95.25 197.014 95.25C195.274 95.25 193.93 94.8177 192.982 93.9531C192.035 93.0781 191.561 91.849 191.561 90.2656V73.375ZM201.795 95V77.5312H206.467V80.5938H206.654C206.977 79.5104 207.514 78.6927 208.264 78.1406C209.014 77.5781 209.873 77.2969 210.842 77.2969C211.092 77.2969 211.352 77.3125 211.623 77.3438C211.904 77.3646 212.154 77.4062 212.373 77.4688V81.75C212.144 81.6771 211.826 81.6198 211.42 81.5781C211.024 81.526 210.654 81.5 210.311 81.5C209.613 81.5 208.982 81.6562 208.42 81.9688C207.857 82.2708 207.415 82.6979 207.092 83.25C206.779 83.7917 206.623 84.4167 206.623 85.125V95H201.795ZM225.014 87.5781V77.5312H229.842V95H225.201V91.8281H225.014C224.618 92.8385 223.967 93.6615 223.061 94.2969C222.154 94.9219 221.045 95.2292 219.732 95.2188C218.566 95.2188 217.535 94.9583 216.639 94.4375C215.753 93.9062 215.061 93.151 214.561 92.1719C214.071 91.1927 213.826 90.0208 213.826 88.6562V77.5312H218.654V87.8125C218.654 88.8333 218.93 89.6458 219.482 90.25C220.035 90.8438 220.769 91.1354 221.686 91.125C222.269 91.125 222.811 90.9948 223.311 90.7344C223.811 90.4635 224.217 90.0625 224.529 89.5312C224.852 89 225.014 88.349 225.014 87.5781ZM237.529 71.7188V95H232.701V71.7188H237.529ZM243.357 101.531C242.743 101.542 242.165 101.5 241.623 101.406C241.092 101.312 240.654 101.193 240.311 101.047L241.404 97.4375L241.561 97.4688C242.373 97.7083 243.066 97.7604 243.639 97.625C244.222 97.5 244.665 97.0417 244.967 96.25L245.248 95.5L238.998 77.5312H244.076L247.686 90.3594H247.873L251.529 77.5312H256.639L249.857 96.8906C249.535 97.8281 249.092 98.6458 248.529 99.3438C247.977 100.042 247.279 100.578 246.436 100.953C245.592 101.339 244.566 101.531 243.357 101.531ZM273.436 95.3125C272.248 95.3125 271.097 95.1146 269.982 94.7188C268.868 94.3229 267.873 93.6823 266.998 92.7969C266.123 91.9115 265.425 90.7396 264.904 89.2812C264.394 87.8125 264.139 86.0156 264.139 83.8906C264.139 81.9323 264.357 80.1823 264.795 78.6406C265.243 77.099 265.878 75.7917 266.701 74.7188C267.535 73.6354 268.535 72.8125 269.701 72.25C270.868 71.6875 272.17 71.4062 273.607 71.4062C275.16 71.4062 276.529 71.7083 277.717 72.3125C278.904 72.9167 279.857 73.7344 280.576 74.7656C281.305 75.7969 281.743 76.9479 281.889 78.2188H277.061C276.873 77.4062 276.472 76.7708 275.857 76.3125C275.243 75.8542 274.493 75.625 273.607 75.625C272.087 75.625 270.93 76.2865 270.139 77.6094C269.357 78.9219 268.967 80.7083 268.967 82.9688H269.123C269.477 82.2812 269.946 81.6927 270.529 81.2031C271.123 80.7135 271.8 80.3385 272.561 80.0781C273.321 79.8177 274.123 79.6875 274.967 79.6875C276.352 79.6875 277.581 80.0104 278.654 80.6562C279.738 81.3021 280.587 82.1927 281.201 83.3281C281.826 84.4531 282.139 85.7448 282.139 87.2031C282.139 88.776 281.769 90.1771 281.029 91.4062C280.3 92.625 279.285 93.5833 277.982 94.2812C276.68 94.9688 275.165 95.3125 273.436 95.3125ZM273.404 91.4375C274.165 91.4375 274.842 91.2604 275.436 90.9062C276.029 90.5417 276.498 90.0469 276.842 89.4219C277.196 88.7969 277.373 88.099 277.373 87.3281C277.373 86.5573 277.201 85.8646 276.857 85.25C276.514 84.6354 276.045 84.151 275.451 83.7969C274.868 83.4323 274.196 83.25 273.436 83.25C272.686 83.25 272.008 83.4375 271.404 83.8125C270.8 84.1771 270.321 84.6719 269.967 85.2969C269.623 85.9115 269.451 86.5938 269.451 87.3438C269.451 88.0938 269.623 88.7812 269.967 89.4062C270.311 90.0312 270.779 90.526 271.373 90.8906C271.977 91.2552 272.654 91.4375 273.404 91.4375ZM293.701 95.3125C291.722 95.3125 290.029 94.8438 288.623 93.9062C287.227 92.9583 286.154 91.599 285.404 89.8281C284.665 88.0469 284.295 85.8958 284.295 83.375C284.295 80.8646 284.67 78.7188 285.42 76.9375C286.17 75.1458 287.243 73.776 288.639 72.8281C290.045 71.8802 291.732 71.4062 293.701 71.4062C295.68 71.4062 297.368 71.8802 298.764 72.8281C300.17 73.776 301.243 75.1406 301.982 76.9219C302.732 78.7031 303.107 80.8542 303.107 83.375C303.107 85.8958 302.738 88.0469 301.998 89.8281C301.258 91.599 300.186 92.9583 298.779 93.9062C297.383 94.8438 295.691 95.3125 293.701 95.3125ZM293.701 91.25C294.649 91.25 295.446 90.9479 296.092 90.3438C296.748 89.7292 297.243 88.8333 297.576 87.6562C297.92 86.4792 298.092 85.0521 298.092 83.375C298.092 81.6875 297.92 80.2552 297.576 79.0781C297.243 77.901 296.748 77.0052 296.092 76.3906C295.446 75.7656 294.649 75.4531 293.701 75.4531C292.295 75.4531 291.212 76.1458 290.451 77.5312C289.691 78.9062 289.311 80.8542 289.311 83.375C289.311 85.0521 289.477 86.4792 289.811 87.6562C290.154 88.8333 290.654 89.7292 291.311 90.3438C291.967 90.9479 292.764 91.25 293.701 91.25ZM326.482 82.5156L322.061 82.7812C321.946 82.2292 321.639 81.7552 321.139 81.3594C320.639 80.9531 319.967 80.75 319.123 80.75C318.373 80.75 317.743 80.9062 317.232 81.2188C316.732 81.5312 316.482 81.9479 316.482 82.4688C316.482 82.8854 316.644 83.2448 316.967 83.5469C317.3 83.8385 317.868 84.0677 318.67 84.2344L321.842 84.8594C323.54 85.2031 324.805 85.7604 325.639 86.5312C326.472 87.3021 326.889 88.3177 326.889 89.5781C326.889 90.7344 326.555 91.7448 325.889 92.6094C325.222 93.4635 324.305 94.1354 323.139 94.625C321.972 95.1042 320.633 95.3438 319.123 95.3438C316.811 95.3438 314.967 94.8594 313.592 93.8906C312.227 92.9219 311.43 91.6094 311.201 89.9531L315.936 89.7031C316.092 90.4115 316.446 90.9479 316.998 91.3125C317.55 91.6771 318.258 91.8594 319.123 91.8594C319.967 91.8594 320.649 91.6927 321.17 91.3594C321.701 91.026 321.967 90.6042 321.967 90.0938C321.967 89.2292 321.217 88.6458 319.717 88.3438L316.701 87.7188C315.003 87.375 313.738 86.7865 312.904 85.9531C312.071 85.1198 311.654 84.0521 311.654 82.75C311.654 81.625 311.962 80.6562 312.576 79.8438C313.191 79.0312 314.05 78.4062 315.154 77.9688C316.269 77.5312 317.571 77.3125 319.061 77.3125C321.269 77.3125 323.003 77.7812 324.264 78.7188C325.535 79.6458 326.274 80.9115 326.482 82.5156ZM336.873 95.3438C335.081 95.3438 333.535 94.9792 332.232 94.25C330.93 93.5208 329.93 92.4844 329.232 91.1406C328.545 89.7865 328.201 88.1875 328.201 86.3438C328.201 84.5521 328.545 82.9792 329.232 81.625C329.93 80.2708 330.91 79.2135 332.17 78.4531C333.441 77.6927 334.93 77.3125 336.639 77.3125C337.795 77.3125 338.873 77.5 339.873 77.875C340.873 78.2396 341.748 78.7917 342.498 79.5312C343.248 80.2604 343.831 81.1823 344.248 82.2969C344.665 83.401 344.873 84.6979 344.873 86.1875V87.5H330.123V84.5156H342.529L340.279 85.2969C340.279 84.4115 340.144 83.6406 339.873 82.9844C339.602 82.3281 339.196 81.8229 338.654 81.4688C338.123 81.1042 337.462 80.9219 336.67 80.9219C335.878 80.9219 335.206 81.1042 334.654 81.4688C334.113 81.8333 333.696 82.3281 333.404 82.9531C333.113 83.5781 332.967 84.2969 332.967 85.1094V87.2188C332.967 88.1667 333.133 88.9792 333.467 89.6562C333.8 90.3229 334.264 90.8385 334.857 91.2031C335.462 91.5573 336.154 91.7344 336.936 91.7344C337.477 91.7344 337.967 91.6562 338.404 91.5C338.842 91.3438 339.217 91.1146 339.529 90.8125C339.852 90.5104 340.092 90.1458 340.248 89.7188L344.717 90.0156C344.498 91.0885 344.04 92.026 343.342 92.8281C342.654 93.6198 341.764 94.2396 340.67 94.6875C339.576 95.125 338.311 95.3438 336.873 95.3438ZM354.811 95.3438C353.029 95.3438 351.498 94.9635 350.217 94.2031C348.936 93.4323 347.951 92.375 347.264 91.0312C346.576 89.6771 346.232 88.1146 346.232 86.3438C346.232 84.5521 346.576 82.9792 347.264 81.625C347.962 80.2708 348.951 79.2135 350.232 78.4531C351.514 77.6927 353.04 77.3125 354.811 77.3125C356.331 77.3125 357.66 77.5885 358.795 78.1406C359.941 78.6927 360.847 79.4688 361.514 80.4688C362.18 81.4688 362.545 82.6458 362.607 84H358.045C357.962 83.4167 357.785 82.9062 357.514 82.4688C357.243 82.0312 356.883 81.6927 356.436 81.4531C355.988 81.2135 355.467 81.0938 354.873 81.0938C354.123 81.0938 353.467 81.2969 352.904 81.7031C352.352 82.099 351.92 82.6875 351.607 83.4688C351.305 84.2396 351.154 85.1771 351.154 86.2812C351.154 87.3854 351.305 88.3333 351.607 89.125C351.92 89.9167 352.352 90.5208 352.904 90.9375C353.467 91.3542 354.123 91.5625 354.873 91.5625C355.706 91.5625 356.41 91.3021 356.982 90.7812C357.555 90.25 357.91 89.5208 358.045 88.5938H362.607C362.535 89.9271 362.175 91.1042 361.529 92.125C360.883 93.1354 359.993 93.9271 358.857 94.5C357.722 95.0625 356.373 95.3438 354.811 95.3438ZM372.561 95.3438C370.8 95.3438 369.274 94.9688 367.982 94.2188C366.701 93.4583 365.712 92.4062 365.014 91.0625C364.326 89.7083 363.982 88.1354 363.982 86.3438C363.982 84.5312 364.326 82.9531 365.014 81.6094C365.712 80.2552 366.701 79.2031 367.982 78.4531C369.274 77.6927 370.8 77.3125 372.561 77.3125C374.331 77.3125 375.857 77.6927 377.139 78.4531C378.43 79.2031 379.42 80.2552 380.107 81.6094C380.805 82.9531 381.154 84.5312 381.154 86.3438C381.154 88.1354 380.805 89.7083 380.107 91.0625C379.42 92.4062 378.43 93.4583 377.139 94.2188C375.857 94.9688 374.331 95.3438 372.561 95.3438ZM372.592 91.5625C373.394 91.5625 374.066 91.3385 374.607 90.8906C375.149 90.4323 375.555 89.8073 375.826 89.0156C376.107 88.224 376.248 87.3229 376.248 86.3125C376.248 85.2917 376.107 84.3906 375.826 83.6094C375.555 82.8281 375.149 82.2135 374.607 81.7656C374.066 81.3177 373.394 81.0938 372.592 81.0938C371.779 81.0938 371.097 81.3177 370.545 81.7656C370.003 82.2135 369.592 82.8281 369.311 83.6094C369.04 84.3906 368.904 85.2917 368.904 86.3125C368.904 87.3229 369.04 88.224 369.311 89.0156C369.592 89.8073 370.003 90.4323 370.545 90.8906C371.097 91.3385 371.779 91.5625 372.592 91.5625ZM388.123 84.9062V95H383.295V77.5312H388.045V80.6406H388.217C388.613 79.6094 389.243 78.7969 390.107 78.2031C390.972 77.6094 392.055 77.3125 393.357 77.3125C394.566 77.3125 395.618 77.5781 396.514 78.1094C397.42 78.6406 398.123 79.3958 398.623 80.375C399.123 81.3542 399.373 82.526 399.373 83.8906V95H394.545V84.75C394.545 83.6875 394.269 82.8542 393.717 82.25C393.165 81.6354 392.404 81.3281 391.436 81.3281C390.79 81.3281 390.217 81.474 389.717 81.7656C389.217 82.0469 388.826 82.4531 388.545 82.9844C388.264 83.5156 388.123 84.1562 388.123 84.9062ZM408.607 95.2812C407.274 95.2812 406.071 94.9375 404.998 94.25C403.925 93.5625 403.076 92.5521 402.451 91.2188C401.826 89.875 401.514 88.2344 401.514 86.2969C401.514 84.2969 401.837 82.6302 402.482 81.2969C403.128 79.9635 403.988 78.9688 405.061 78.3125C406.133 77.6458 407.305 77.3125 408.576 77.3125C409.555 77.3125 410.373 77.4792 411.029 77.8125C411.686 78.1354 412.217 78.5417 412.623 79.0312C413.029 79.5208 413.337 80.0052 413.545 80.4844H413.686V71.7188H418.529V95H413.764V92.2031H413.545C413.326 92.6823 413.008 93.1615 412.592 93.6406C412.175 94.1094 411.639 94.5 410.982 94.8125C410.337 95.125 409.545 95.2812 408.607 95.2812ZM410.123 91.4375C410.904 91.4375 411.566 91.224 412.107 90.7969C412.66 90.3594 413.076 89.7552 413.357 88.9844C413.649 88.2135 413.795 87.3125 413.795 86.2812C413.795 85.2396 413.654 84.3385 413.373 83.5781C413.092 82.8073 412.675 82.2135 412.123 81.7969C411.571 81.3698 410.904 81.1562 410.123 81.1562C409.331 81.1562 408.665 81.375 408.123 81.8125C407.581 82.25 407.17 82.8542 406.889 83.625C406.607 84.3854 406.467 85.2708 406.467 86.2812C406.467 87.2917 406.607 88.1875 406.889 88.9688C407.17 89.7396 407.581 90.3438 408.123 90.7812C408.675 91.2188 409.342 91.4375 410.123 91.4375ZM435.857 82.5156L431.436 82.7812C431.321 82.2292 431.014 81.7552 430.514 81.3594C430.014 80.9531 429.342 80.75 428.498 80.75C427.748 80.75 427.118 80.9062 426.607 81.2188C426.107 81.5312 425.857 81.9479 425.857 82.4688C425.857 82.8854 426.019 83.2448 426.342 83.5469C426.675 83.8385 427.243 84.0677 428.045 84.2344L431.217 84.8594C432.915 85.2031 434.18 85.7604 435.014 86.5312C435.847 87.3021 436.264 88.3177 436.264 89.5781C436.264 90.7344 435.93 91.7448 435.264 92.6094C434.597 93.4635 433.68 94.1354 432.514 94.625C431.347 95.1042 430.008 95.3438 428.498 95.3438C426.186 95.3438 424.342 94.8594 422.967 93.8906C421.602 92.9219 420.805 91.6094 420.576 89.9531L425.311 89.7031C425.467 90.4115 425.821 90.9479 426.373 91.3125C426.925 91.6771 427.633 91.8594 428.498 91.8594C429.342 91.8594 430.024 91.6927 430.545 91.3594C431.076 91.026 431.342 90.6042 431.342 90.0938C431.342 89.2292 430.592 88.6458 429.092 88.3438L426.076 87.7188C424.378 87.375 423.113 86.7865 422.279 85.9531C421.446 85.1198 421.029 84.0521 421.029 82.75C421.029 81.625 421.337 80.6562 421.951 79.8438C422.566 79.0312 423.425 78.4062 424.529 77.9688C425.644 77.5312 426.946 77.3125 428.436 77.3125C430.644 77.3125 432.378 77.7812 433.639 78.7188C434.91 79.6458 435.649 80.9115 435.857 82.5156Z" fill="#09090B"/>
</svg>
